<svg width="248" height="124" viewBox="0 0 248 124" fill="none" xmlns="http://www.w3.org/2000/svg">
<g clip-path="url(#clip0_90_10)">
<path d="M0 0H248V124H0V0Z" fill="#FF671F"/>
<mask id="mask0_90_10" style="mask-type:luminance" maskUnits="userSpaceOnUse" x="35" y="33" width="177" height="49">
<path d="M35.4141 33.877H211.172V81.6666H35.4141V33.877Z" fill="white"/>
</mask>
<g mask="url(#mask0_90_10)">
<path d="M51.7075 62.5945L50.0459 49.0537C49.9715 48.4337 49.5499 47.8633 48.9051 47.6401C48.2603 47.4169 47.5907 47.5905 47.1195 48.0369L37.3235 57.5353C37.1251 57.7337 36.9515 57.9569 36.8523 58.2545C36.5299 59.1721 37.0011 60.1641 37.9187 60.4617C38.1171 60.5361 38.2907 60.5609 38.4891 60.5609H40.0515L41.6883 60.5361C41.7627 60.5361 41.8123 60.5361 41.8867 60.5609C42.1843 60.6601 42.3331 60.9825 42.2339 61.2801L41.6883 62.8177L35.6123 80.0041H36.8523L43.3003 61.7017C43.3003 61.6769 43.3251 61.6769 43.3251 61.6521C43.6475 60.7593 43.1763 59.7425 42.2587 59.4449C42.0603 59.3705 41.8619 59.3457 41.6635 59.3457L40.1259 59.3705H39.3571H38.4891C38.4147 59.3705 38.3651 59.3705 38.2907 59.3457C37.9931 59.2465 37.8443 58.9241 37.9435 58.6265C37.9683 58.5273 38.0427 58.4529 38.1171 58.3785L39.2827 57.2625L46.6731 50.0705L47.9379 48.8305C48.0867 48.6817 48.3099 48.6321 48.5083 48.7065C48.7067 48.7809 48.8555 48.9545 48.8803 49.1777L49.1035 50.9137L50.3683 61.1561L50.5667 62.7433C50.5915 62.8425 50.5667 62.9417 50.5419 63.0409C50.4427 63.3385 50.1203 63.4873 49.8227 63.3881C49.7483 63.3633 49.6987 63.3385 49.6491 63.2889L48.9795 62.7433L48.3843 62.2721L47.1939 61.3049C47.0451 61.1809 46.8715 61.0817 46.6731 61.0073C45.7803 60.6849 44.7635 61.1561 44.4659 62.0737C44.4659 62.0985 44.4659 62.0985 44.4411 62.1233L38.1171 80.0289H39.3571L45.0115 64.0081L45.5571 62.4705C45.6563 62.1729 45.9787 62.0241 46.2763 62.1233C46.3507 62.1481 46.4003 62.1729 46.4499 62.2225L47.7147 63.2641L48.9299 64.2561C49.0787 64.3801 49.2523 64.4793 49.4259 64.5537C50.3187 64.8761 51.3355 64.4049 51.6331 63.4873C51.7323 63.1649 51.7571 62.8673 51.7075 62.5945Z" fill="white"/>
</g>
<mask id="mask1_90_10" style="mask-type:luminance" maskUnits="userSpaceOnUse" x="35" y="33" width="177" height="49">
<path d="M35.4141 33.877H211.172V81.6666H35.4141V33.877Z" fill="white"/>
</mask>
<g mask="url(#mask1_90_10)">
<path d="M87.7422 80.0306H101.035L116.51 36.457H103.168L87.7422 80.0306Z" fill="white"/>
</g>
<mask id="mask2_90_10" style="mask-type:luminance" maskUnits="userSpaceOnUse" x="35" y="33" width="177" height="49">
<path d="M35.4141 33.877H211.172V81.6666H35.4141V33.877Z" fill="white"/>
</mask>
<g mask="url(#mask2_90_10)">
<path d="M140.938 80.0299H154.107L160.977 60.8347C163.73 56.2219 169.235 57.2635 168.218 61.3059L161.622 80.0299H175.386L181.908 61.7275C183.644 57.1395 190.861 56.8419 189.274 62.2731L183.148 80.0299H196.441L203.881 58.9747C206.361 51.8075 197.606 42.2347 182.553 52.7747C180.767 47.9635 173.352 44.9379 163.432 51.9563L164.102 49.1043H151.751L140.938 80.0299Z" fill="white"/>
</g>
<mask id="mask3_90_10" style="mask-type:luminance" maskUnits="userSpaceOnUse" x="35" y="33" width="177" height="49">
<path d="M35.4141 33.877H211.172V81.6666H35.4141V33.877Z" fill="white"/>
</mask>
<g mask="url(#mask3_90_10)">
<path d="M204.103 37.027C204.5 35.663 205.765 34.6462 207.278 34.6462C209.088 34.6462 210.576 36.1342 210.576 37.9446C210.576 39.7798 209.088 41.243 207.278 41.243C205.442 41.243 203.954 39.7798 203.954 37.9446C203.93 37.6222 203.979 37.3246 204.103 37.027L203.731 36.8534C203.632 37.2006 203.558 37.5726 203.558 37.9446C203.558 40.003 205.194 41.6646 207.278 41.6646C209.311 41.6646 210.998 40.003 210.998 37.9446C210.998 35.911 209.311 34.2246 207.278 34.2246C205.591 34.2246 204.202 35.3158 203.731 36.8534L204.103 37.027Z" fill="white"/>
</g>
<mask id="mask4_90_10" style="mask-type:luminance" maskUnits="userSpaceOnUse" x="35" y="34" width="176" height="48">
<path d="M35.6123 34.248H210.973V81.3432H35.6123V34.248Z" fill="white"/>
</mask>
<g mask="url(#mask4_90_10)">
<path d="M206.609 37.8692H206.485V36.7532H208.022C208.717 36.9516 208.419 37.8692 207.898 37.8692H206.609V38.266H207.526C208.667 38.4148 208.097 39.4812 208.369 39.8036H208.766C208.469 39.382 208.989 38.5636 208.245 38.1916C209.237 37.7452 208.816 36.3564 207.898 36.3812H206.088V39.8036H206.435V38.2908H206.609V37.8692Z" fill="white"/>
</g>
<mask id="mask5_90_10" style="mask-type:luminance" maskUnits="userSpaceOnUse" x="35" y="34" width="176" height="48">
<path d="M35.6123 34.248H210.973V81.3432H35.6123V34.248Z" fill="white"/>
</mask>
<g mask="url(#mask5_90_10)">
<path d="M127.422 49.0527H114.948L107.607 69.6367C103.937 81.2679 115.642 85.1119 126.777 77.0767L126.033 80.0279H137.913L148.874 49.1023H136.152L129.654 66.7599C128.141 71.0751 119.685 73.5055 120.974 66.8839L127.422 49.0527Z" fill="white"/>
</g>
<mask id="mask6_90_10" style="mask-type:luminance" maskUnits="userSpaceOnUse" x="35" y="34" width="176" height="48">
<path d="M35.6123 34.248H210.973V81.3432H35.6123V34.248Z" fill="white"/>
</mask>
<g mask="url(#mask6_90_10)">
<path d="M72.2664 50.6905L77.2264 36.3809H63.884L48.5576 80.0041H61.0816L62.52 76.5569C63.2888 81.7897 80.5496 86.1793 89.7504 67.6041C96.9672 54.2121 88.7088 40.9193 72.2664 50.6905ZM76.8048 67.2817C74.3248 70.3321 70.3568 71.8697 68.0752 70.3569C65.5952 68.6953 65.744 64.9257 68.224 61.3545C68.8192 60.4617 69.464 59.6929 70.1584 59.0729C72.4896 56.8657 75.168 56.1465 77.3256 57.5601C79.8304 59.2217 79.4088 64.0329 76.8048 67.2817Z" fill="white"/>
</g>
</g>
<defs>
<clipPath id="clip0_90_10">
<rect width="248" height="124" fill="white"/>
</clipPath>
</defs>
</svg>
