<svg width="347" height="124" viewBox="0 0 347 124" fill="none" xmlns="http://www.w3.org/2000/svg">
<g clip-path="url(#clip0_90_42)">
<path d="M94.7719 113.667H100.324C101.083 113.665 101.761 113.555 102.355 113.345C102.949 113.14 103.462 112.846 103.895 112.475C104.331 112.103 104.686 111.672 104.97 111.185C105.252 110.697 105.462 110.17 105.595 109.611C105.732 109.055 105.802 108.482 105.802 107.895C105.802 106.962 105.607 106.17 105.215 105.51C104.824 104.855 104.241 104.348 103.47 104.006C102.699 103.657 101.737 103.484 100.589 103.481H94.6026L90.917 120.896H93.2441L94.7719 113.667ZM96.4925 105.518H100.395C101.142 105.518 101.744 105.628 102.196 105.837C102.65 106.05 102.977 106.36 103.18 106.762C103.382 107.167 103.478 107.656 103.474 108.235C103.478 108.461 103.445 108.723 103.386 109.014C103.325 109.31 103.22 109.609 103.07 109.913C102.921 110.215 102.714 110.498 102.449 110.757C102.185 111.015 101.85 111.227 101.446 111.383C101.041 111.545 100.553 111.625 99.9831 111.63H95.2069L96.4925 105.518ZM109.605 113.57C109.73 113.045 109.907 112.553 110.139 112.087C110.369 111.625 110.647 111.215 110.982 110.859C111.318 110.503 111.707 110.222 112.151 110.022C112.595 109.819 113.097 109.718 113.654 109.713C114.033 109.71 114.397 109.767 114.744 109.88C115.087 109.994 115.399 110.178 115.674 110.432C115.945 110.685 116.162 111.026 116.32 111.443C116.479 111.864 116.56 112.379 116.563 112.989V113.57H109.605ZM118.503 115.172C118.518 114.997 118.535 114.815 118.551 114.63C118.562 114.443 118.575 114.226 118.583 113.975C118.595 113.724 118.598 113.421 118.598 113.062C118.603 112.799 118.583 112.487 118.543 112.136C118.503 111.781 118.421 111.404 118.303 111.012C118.191 110.619 118.021 110.236 117.799 109.859C117.577 109.485 117.286 109.139 116.93 108.837C116.571 108.532 116.131 108.281 115.601 108.101C115.076 107.921 114.449 107.827 113.727 107.822C112.898 107.827 112.139 107.973 111.448 108.258C110.761 108.546 110.15 108.946 109.613 109.455C109.079 109.965 108.628 110.56 108.26 111.238C107.892 111.916 107.614 112.649 107.419 113.433C107.23 114.22 107.132 115.033 107.132 115.875C107.136 116.971 107.331 117.924 107.718 118.733C108.106 119.543 108.664 120.164 109.391 120.608C110.122 121.055 111 121.276 112.03 121.284C113.047 121.281 113.936 121.107 114.704 120.764C115.472 120.418 116.122 119.915 116.659 119.252C117.193 118.587 117.621 117.777 117.944 116.821H115.835C115.597 117.335 115.31 117.785 114.979 118.166C114.647 118.551 114.255 118.85 113.799 119.065C113.342 119.278 112.809 119.387 112.199 119.393C111.497 119.387 110.923 119.252 110.479 118.979C110.03 118.712 109.698 118.324 109.484 117.823C109.273 117.32 109.169 116.72 109.169 116.02C109.169 115.862 109.177 115.716 109.189 115.576C109.205 115.439 109.229 115.306 109.266 115.172H118.503ZM120.392 120.896H137.263L139.954 108.212H137.772L135.494 119.003H130.33L132.608 108.212H130.427L128.147 119.003H122.985L125.263 108.212H123.083L120.392 120.896ZM143.976 113.57C144.102 113.045 144.279 112.553 144.509 112.087C144.74 111.625 145.018 111.215 145.353 110.859C145.689 110.503 146.077 110.222 146.522 110.022C146.965 109.819 147.467 109.718 148.024 109.713C148.403 109.71 148.767 109.767 149.115 109.88C149.457 109.994 149.769 110.178 150.044 110.432C150.315 110.685 150.532 111.026 150.691 111.443C150.848 111.864 150.928 112.379 150.934 112.989V113.57H143.976ZM152.872 115.172C152.889 114.997 152.904 114.815 152.921 114.63C152.932 114.443 152.946 114.226 152.953 113.975C152.966 113.724 152.97 113.421 152.97 113.062C152.973 112.799 152.953 112.487 152.914 112.136C152.872 111.781 152.791 111.404 152.675 111.012C152.562 110.619 152.391 110.236 152.169 109.859C151.946 109.485 151.655 109.139 151.301 108.837C150.941 108.532 150.5 108.281 149.971 108.101C149.446 107.921 148.82 107.827 148.096 107.822C147.269 107.827 146.508 107.973 145.818 108.258C145.131 108.546 144.521 108.946 143.984 109.455C143.451 109.965 142.998 110.56 142.629 111.238C142.262 111.916 141.984 112.649 141.789 113.433C141.6 114.22 141.502 115.033 141.502 115.875C141.507 116.971 141.701 117.924 142.088 118.733C142.477 119.543 143.034 120.164 143.761 120.608C144.492 121.055 145.37 121.276 146.401 121.284C147.419 121.281 148.307 121.107 149.074 120.764C149.843 120.418 150.492 119.915 151.03 119.252C151.564 118.587 151.991 117.777 152.315 116.821H150.205C149.968 117.335 149.681 117.785 149.349 118.166C149.018 118.551 148.627 118.85 148.17 119.065C147.713 119.278 147.18 119.387 146.57 119.393C145.867 119.387 145.293 119.252 144.848 118.979C144.4 118.712 144.068 118.324 143.855 117.823C143.645 117.32 143.539 116.72 143.539 116.02C143.539 115.862 143.547 115.716 143.559 115.576C143.576 115.439 143.599 115.306 143.636 115.172H152.872ZM154.76 120.896H156.943L158.203 114.93H163.974L162.712 120.896H164.894L167.584 108.212H165.404L164.337 113.181H158.567L159.634 108.212H157.452L154.76 120.896ZM168.504 120.896H170.782L178.613 111.194H178.661L176.601 120.896H178.784L181.474 108.212H179.049L171.462 117.425H171.414L173.376 108.212H171.196L168.504 120.896ZM185.422 113.57C185.548 113.045 185.726 112.553 185.955 112.087C186.185 111.625 186.463 111.215 186.801 110.859C187.136 110.503 187.523 110.222 187.966 110.022C188.411 109.819 188.914 109.718 189.47 109.713C189.851 109.71 190.213 109.767 190.563 109.88C190.905 109.994 191.215 110.178 191.49 110.432C191.763 110.685 191.98 111.026 192.139 111.443C192.295 111.864 192.376 112.379 192.38 112.989V113.57H185.422ZM194.32 115.172C194.336 114.997 194.351 114.815 194.367 114.63C194.38 114.443 194.392 114.226 194.401 113.975C194.413 113.724 194.415 113.421 194.415 113.062C194.422 112.799 194.401 112.487 194.358 112.136C194.32 111.781 194.237 111.404 194.123 111.012C194.008 110.619 193.839 110.236 193.616 109.859C193.394 109.485 193.103 109.139 192.747 108.837C192.388 108.532 191.947 108.281 191.417 108.101C190.893 107.921 190.268 107.827 189.543 107.822C188.715 107.827 187.956 107.973 187.266 108.258C186.578 108.546 185.968 108.946 185.43 109.455C184.898 109.965 184.444 110.56 184.078 111.238C183.709 111.916 183.431 112.649 183.237 113.433C183.047 114.22 182.95 115.033 182.95 115.875C182.954 116.971 183.148 117.924 183.535 118.733C183.924 119.543 184.48 120.164 185.207 120.608C185.939 121.055 186.817 121.276 187.847 121.284C188.864 121.281 189.752 121.107 190.522 120.764C191.29 120.418 191.94 119.915 192.476 119.252C193.011 118.587 193.439 117.777 193.761 116.821H191.654C191.414 117.335 191.126 117.785 190.794 118.166C190.465 118.551 190.072 118.85 189.615 119.065C189.159 119.278 188.627 119.387 188.016 119.393C187.313 119.387 186.739 119.252 186.294 118.979C185.846 118.712 185.517 118.324 185.3 117.823C185.09 117.32 184.987 116.72 184.987 116.02C184.987 115.862 184.994 115.716 185.008 115.576C185.022 115.439 185.046 115.306 185.082 115.172H194.32ZM214.683 119.148H209.254C209.742 118.166 210.178 117.184 210.562 116.2C210.941 115.215 211.284 114.209 211.587 113.179C211.892 112.153 212.174 111.077 212.428 109.957H216.622L214.683 119.148ZM204.672 124.001H206.707L207.384 120.896H216.09L215.409 124.001H217.447L218.488 119.148H216.864L219.192 108.212H210.682C210.519 109.136 210.308 110.077 210.048 111.036C209.794 111.994 209.503 112.945 209.176 113.89C208.851 114.836 208.506 115.75 208.137 116.639C207.765 117.53 207.39 118.366 206.998 119.148H205.713L204.672 124.001ZM229.468 120.896H231.649L234.341 108.212H225.276L223.14 116.579C222.96 117.293 222.794 117.857 222.64 118.267C222.486 118.681 222.318 118.972 222.131 119.143C221.941 119.314 221.705 119.398 221.42 119.393C221.288 119.393 221.165 119.387 221.058 119.372C220.955 119.356 220.854 119.332 220.753 119.292C220.656 119.254 220.547 119.197 220.425 119.125L220.085 120.896C220.244 120.946 220.423 121.001 220.615 121.062C220.812 121.123 221.008 121.171 221.205 121.216C221.404 121.26 221.578 121.281 221.733 121.284C222.276 121.281 222.733 121.188 223.1 121.001C223.469 120.816 223.772 120.556 224.011 120.229C224.253 119.902 224.449 119.522 224.608 119.094C224.769 118.665 224.911 118.208 225.032 117.72L227.02 110.103H231.748L229.468 120.896ZM248.179 108.212H241.029C240.367 108.214 239.796 108.302 239.329 108.475C238.858 108.643 238.467 108.864 238.155 109.139C237.849 109.42 237.603 109.713 237.42 110.032C237.239 110.357 237.101 110.669 237.018 110.97C236.928 111.28 236.873 111.545 236.847 111.776C236.818 112.007 236.807 112.169 236.81 112.261C236.816 112.776 236.896 113.194 237.049 113.53C237.203 113.87 237.392 114.138 237.628 114.34C237.857 114.538 238.095 114.696 238.335 114.805C238.576 114.909 238.787 114.995 238.967 115.051C238.547 115.111 238.217 115.226 237.973 115.397C237.735 115.572 237.55 115.787 237.418 116.045C237.281 116.301 237.158 116.582 237.054 116.893L236.107 119.343C235.998 119.65 235.897 119.886 235.808 120.054C235.715 120.224 235.632 120.343 235.559 120.416C235.481 120.483 235.413 120.527 235.351 120.541C235.291 120.556 235.234 120.561 235.188 120.556V120.896H237.683C237.763 120.795 237.847 120.681 237.922 120.553C238.003 120.426 238.082 120.27 238.171 120.083C238.257 119.894 238.356 119.654 238.458 119.369L239.163 117.379C239.296 116.994 239.448 116.689 239.628 116.465C239.807 116.244 240.03 116.081 240.305 115.989C240.58 115.896 240.936 115.847 241.369 115.851H244.327L243.259 120.896H245.466L248.179 108.212ZM244.691 114.129H241.271C241.151 114.131 240.995 114.124 240.814 114.109C240.629 114.096 240.429 114.057 240.225 114C240.019 113.94 239.824 113.846 239.642 113.717C239.462 113.584 239.313 113.404 239.194 113.179C239.082 112.953 239.023 112.661 239.017 112.309C239.023 111.857 239.09 111.478 239.228 111.173C239.365 110.87 239.55 110.628 239.786 110.451C240.014 110.272 240.274 110.141 240.56 110.069C240.848 109.994 241.141 109.952 241.442 109.957H245.562L244.691 114.129ZM259.112 120.896H261.152L263.33 110.394H263.38L264.448 120.896H266.629L272.179 110.539H272.228L269.926 120.896H271.961L274.655 108.212H271.671L266.121 118.471H266.072L264.932 108.212H261.806L259.112 120.896ZM278.675 113.57C278.799 113.045 278.978 112.553 279.206 112.087C279.439 111.625 279.716 111.215 280.051 110.859C280.39 110.503 280.775 110.222 281.218 110.022C281.662 109.819 282.165 109.718 282.723 109.713C283.102 109.71 283.466 109.767 283.813 109.88C284.158 109.994 284.468 110.178 284.743 110.432C285.013 110.685 285.234 111.026 285.39 111.443C285.546 111.864 285.63 112.379 285.633 112.989V113.57H278.675ZM287.573 115.172C287.588 114.997 287.606 114.815 287.62 114.63C287.63 114.443 287.645 114.226 287.653 113.975C287.663 113.724 287.667 113.421 287.667 113.062C287.67 112.799 287.653 112.487 287.613 112.136C287.573 111.781 287.489 111.404 287.373 111.012C287.261 110.619 287.09 110.236 286.869 109.859C286.644 109.485 286.354 109.139 285.999 108.837C285.64 108.532 285.199 108.281 284.668 108.101C284.145 107.921 283.521 107.827 282.795 107.822C281.969 107.827 281.208 107.973 280.517 108.258C279.83 108.546 279.221 108.946 278.683 109.455C278.15 109.965 277.696 110.56 277.329 111.238C276.963 111.916 276.68 112.649 276.489 113.433C276.301 114.22 276.202 115.033 276.202 115.875C276.207 116.971 276.402 117.924 276.787 118.733C277.176 119.543 277.733 120.164 278.46 120.608C279.193 121.055 280.071 121.276 281.097 121.284C282.118 121.281 283.005 121.107 283.774 120.764C284.54 120.418 285.191 119.915 285.729 119.252C286.262 118.587 286.691 117.777 287.013 116.821H284.904C284.666 117.335 284.381 117.785 284.051 118.166C283.717 118.551 283.325 118.85 282.866 119.065C282.413 119.278 281.878 119.387 281.27 119.393C280.564 119.387 279.991 119.252 279.545 118.979C279.097 118.712 278.767 118.324 278.551 117.823C278.343 117.32 278.239 116.72 278.239 116.02C278.239 115.862 278.246 115.716 278.256 115.576C278.276 115.439 278.298 115.306 278.333 115.172H287.573ZM299.691 103.236C299.636 103.406 299.505 103.548 299.287 103.664C299.069 103.772 298.781 103.873 298.429 103.969C298.077 104.064 297.678 104.173 297.232 104.289C296.776 104.411 296.295 104.567 295.78 104.754C295.264 104.944 294.731 105.19 294.186 105.494C293.623 105.815 293.13 106.217 292.697 106.703C292.265 107.188 291.886 107.729 291.566 108.331C291.247 108.929 290.974 109.565 290.753 110.227C290.535 110.895 290.357 111.566 290.223 112.246C290.092 112.924 289.992 113.584 289.938 114.226C289.876 114.87 289.846 115.468 289.846 116.02C289.854 116.994 289.997 117.815 290.277 118.491C290.555 119.166 290.929 119.706 291.405 120.117C291.879 120.527 292.409 120.826 292.999 121.008C293.586 121.195 294.191 121.289 294.818 121.284C295.604 121.281 296.31 121.171 296.942 120.954C297.569 120.738 298.127 120.445 298.61 120.071C299.091 119.699 299.513 119.278 299.869 118.803C300.224 118.331 300.516 117.832 300.762 117.314C301.005 116.792 301.198 116.28 301.344 115.766C301.488 115.257 301.592 114.776 301.659 114.327C301.721 113.877 301.751 113.49 301.751 113.158C301.746 112.448 301.642 111.817 301.441 111.274C301.238 110.728 300.96 110.264 300.616 109.876C300.261 109.487 299.872 109.173 299.433 108.925C298.992 108.679 298.531 108.497 298.053 108.386C297.574 108.267 297.101 108.212 296.635 108.212C296.174 108.206 295.758 108.238 295.388 108.308C295.026 108.376 294.672 108.497 294.325 108.671C293.978 108.846 293.599 109.088 293.192 109.398H293.145C293.462 108.801 293.77 108.302 294.072 107.895C294.379 107.492 294.709 107.159 295.061 106.897C295.418 106.637 295.834 106.424 296.31 106.258C296.791 106.092 297.356 105.952 298.018 105.832C298.707 105.728 299.282 105.567 299.741 105.344C300.199 105.122 300.571 104.835 300.849 104.486C301.134 104.138 301.352 103.723 301.505 103.236H299.691ZM296.514 109.931C297.108 109.931 297.639 110.061 298.095 110.324C298.551 110.584 298.91 110.968 299.171 111.471C299.433 111.981 299.565 112.61 299.572 113.353C299.572 113.659 299.53 114.022 299.465 114.443C299.391 114.86 299.28 115.302 299.123 115.766C298.97 116.225 298.774 116.682 298.534 117.127C298.293 117.574 298.003 117.977 297.661 118.338C297.322 118.701 296.93 118.993 296.489 119.205C296.045 119.421 295.547 119.533 294.987 119.538C294.35 119.533 293.809 119.393 293.371 119.109C292.932 118.826 292.595 118.419 292.369 117.888C292.144 117.358 292.032 116.72 292.032 115.971C292.032 115.338 292.097 114.725 292.228 114.131C292.362 113.542 292.55 112.994 292.806 112.483C293.061 111.973 293.368 111.535 293.73 111.149C294.094 110.771 294.508 110.47 294.979 110.255C295.445 110.046 295.956 109.937 296.514 109.931ZM306.309 113.57C306.433 113.045 306.609 112.553 306.839 112.087C307.07 111.625 307.347 111.215 307.682 110.859C308.017 110.503 308.408 110.222 308.852 110.022C309.295 109.819 309.796 109.718 310.354 109.713C310.733 109.71 311.097 109.767 311.444 109.88C311.786 109.994 312.101 110.178 312.374 110.432C312.647 110.685 312.865 111.026 313.021 111.443C313.179 111.864 313.259 112.379 313.264 112.989V113.57H306.309ZM315.204 115.172C315.217 114.997 315.234 114.815 315.251 114.63C315.261 114.443 315.274 114.226 315.284 113.975C315.296 113.724 315.299 113.421 315.299 113.062C315.304 112.799 315.284 112.487 315.244 112.136C315.204 111.781 315.12 111.404 315.004 111.012C314.89 110.619 314.721 110.236 314.498 109.859C314.277 109.485 313.987 109.139 313.633 108.837C313.271 108.532 312.832 108.281 312.302 108.101C311.774 107.921 311.149 107.827 310.428 107.822C309.598 107.827 308.839 107.973 308.148 108.258C307.459 108.546 306.849 108.946 306.316 109.455C305.781 109.965 305.33 110.56 304.96 111.238C304.594 111.916 304.314 112.649 304.123 113.433C303.929 114.22 303.833 115.033 303.833 115.875C303.835 116.971 304.029 117.924 304.42 118.733C304.804 119.543 305.364 120.164 306.093 120.608C306.822 121.055 307.699 121.276 308.73 121.284C309.749 121.281 310.639 121.107 311.405 120.764C312.173 120.418 312.825 119.915 313.36 119.252C313.893 118.587 314.32 117.777 314.644 116.821H312.537C312.297 117.335 312.01 117.785 311.677 118.166C311.345 118.551 310.959 118.85 310.5 119.065C310.044 119.278 309.511 119.387 308.896 119.393C308.197 119.387 307.622 119.252 307.179 118.979C306.73 118.712 306.398 118.324 306.185 117.823C305.974 117.32 305.873 116.72 305.873 116.02C305.873 115.862 305.878 115.716 305.89 115.576C305.902 115.439 305.93 115.306 305.967 115.172H315.204ZM325.867 120.896H328.048L330.738 108.212H321.671L319.539 116.579C319.356 117.293 319.195 117.857 319.039 118.267C318.883 118.681 318.714 118.972 318.531 119.143C318.337 119.314 318.104 119.398 317.819 119.393C317.683 119.393 317.564 119.387 317.457 119.372C317.353 119.356 317.254 119.332 317.153 119.292C317.056 119.254 316.947 119.197 316.825 119.125L316.486 120.896C316.644 120.946 316.82 121.001 317.014 121.062C317.21 121.123 317.408 121.171 317.604 121.216C317.804 121.26 317.975 121.281 318.134 121.284C318.674 121.281 319.13 121.188 319.5 121.001C319.867 120.816 320.169 120.556 320.409 120.229C320.65 119.902 320.851 119.522 321.007 119.094C321.168 118.665 321.307 118.208 321.431 117.72L323.418 110.103H328.145L325.867 120.896ZM331.803 120.896H334.081L341.911 111.194H341.961L339.901 120.896H342.085L344.774 108.212H342.347L334.763 117.425H334.711L336.676 108.212H334.493L331.803 120.896Z" fill="#231F20"/>
<path d="M278.423 47.8598V68.7605H264.526V36.9991H284.986C299.92 36.9991 312.139 48.6549 312.139 63.7258C312.139 78.7274 299.855 90.4652 284.986 90.4652H264.526V70.5528H278.423V79.5029H282.148C292.444 79.5029 298.187 72.1167 298.244 63.5733C298.316 52.4837 288.714 47.8608 282.002 47.8598H278.423ZM77.0613 91.3922C64.1891 91.3922 53.3855 82.5304 50.4089 70.5704H64.6533C67.0292 74.992 71.6944 77.9958 77.0613 77.9958C82.4274 77.9958 87.0933 74.992 89.4682 70.5704H103.712C100.736 82.5304 89.9335 91.3922 77.0613 91.3922ZM49.9883 68.5579C49.732 67.0458 49.595 65.4926 49.595 63.9099C49.595 48.7328 61.8929 36.4277 77.0613 36.4277C92.2296 36.4277 104.527 48.7328 104.527 63.9099C104.527 65.4926 104.39 67.0458 104.133 68.5579H90.3551C90.8622 67.1029 91.1395 65.539 91.1395 63.9099C91.1395 56.1301 84.8358 49.8227 77.0613 49.8227C69.285 49.8227 62.9822 56.1301 62.9822 63.9099C62.9822 65.539 63.2596 67.1029 63.7684 68.5579H49.9883ZM182.959 68.5785L179.142 53.5117H179.009L173.919 68.5785H159.41L171.545 36.9991H186.128L197.425 68.5785H182.959ZM198.158 70.525L205.666 90.4652H191L187.367 81.1756H169.428L165.744 90.4652H150.999L158.66 70.525H198.158ZM122.85 68.5785L102.281 36.9991H118.937L130.432 56.391L141.949 36.9991H158.61L138.042 68.5785H122.85ZM137.482 70.525V90.4652H123.344V70.525H137.482ZM24.5098 90.4652H0V36.9991H22.95C32.179 36.9991 39.5682 42.0749 39.5682 51.3293C39.5682 59.2484 35.1107 61.2592 33.3983 62.0895C37.8027 62.8303 40.5465 64.7776 42.561 68.5785H14.0323V80.0264C20.5832 80.0264 29.6246 80.5457 29.8269 74.1532C29.8747 72.5998 29.3805 71.3809 28.6979 70.525H43.2454C46.8782 83.8927 36.872 90.4652 24.5098 90.4652ZM13.9928 47.8796V58.5097C19.3702 58.6022 26.9688 58.9429 26.9688 52.9671C26.9688 47.2043 19.5727 47.7891 13.9928 47.8796ZM243.073 70.525L258.349 90.4652H241.05L228.34 70.525H243.073ZM227.747 47.8796V60.8528C232.395 60.8528 238.844 60.4924 238.844 54.1153C238.844 47.7403 232.387 47.8796 227.747 47.8796ZM227.793 70.525V90.4652H213.901V70.525H227.793ZM241.598 68.5856L213.901 68.5785V36.9991H234.671C245.193 36.9991 252.948 42.1436 252.948 53.442C252.948 60.8488 249.148 67.2204 241.598 68.5856Z" fill="#231F20"/>
<path d="M211.294 33.7514L224.166 -0.00195312L234.543 18.9691L228.857 33.7514H211.294ZM172.95 33.7514L185.821 -0.00195312L196.199 18.9691L190.514 33.7514H172.95ZM192.122 33.7514L204.992 -0.00195312C208.453 6.32111 211.911 12.645 215.372 18.9691L209.686 33.7514H192.122Z" fill="#ED1C24"/>
</g>
<defs>
<clipPath id="clip0_90_42">
<rect width="347" height="124" fill="white"/>
</clipPath>
</defs>
</svg>
