<svg width="459" height="124" viewBox="0 0 459 124" fill="none" xmlns="http://www.w3.org/2000/svg">
<g clip-path="url(#clip0_90_47)">
<path d="M62.4385 0H279.29V21.9793H62.4385V0Z" fill="#DA1737"/>
<path d="M62.4385 44.4474V64.8032H101.051C101.051 64.8032 101.062 60.871 101.062 60.4671C101.062 60.0751 100.81 59.9196 100.499 59.9118C100.197 59.9003 75.2056 59.9118 75.2056 59.9118L75.2134 52.6282H97.1368C97.1368 52.6282 97.1368 48.7185 97.1368 48.3573C97.1368 47.9885 96.9348 47.7864 96.5699 47.7864C96.2087 47.7864 75.2134 47.7864 75.2134 47.7864V40.3437H101.051C101.051 40.3437 101.051 36.4028 101.051 36.0106C101.051 35.6184 100.798 35.502 100.488 35.502C100.185 35.502 71.3268 35.502 71.3268 35.502C66.399 35.502 62.4385 39.509 62.4385 44.4474Z" fill="black"/>
<path d="M115.185 35.502C115.185 35.502 144.311 35.502 144.676 35.502C145.041 35.502 145.251 35.6418 145.251 36.0147C145.251 36.3796 145.251 40.3359 145.251 40.3359H119.029V59.4539H140.195V52.6282H127.106C127.106 52.6282 127.106 48.6524 127.106 48.3495C127.106 48.0586 127.315 47.7982 127.696 47.7982C130.973 47.7982 144.404 47.7906 144.672 47.7906C144.971 47.7906 145.251 48.0466 145.251 48.3573C145.251 48.668 145.251 64.8032 145.251 64.8032H106.281V44.4474C106.281 39.509 110.269 35.502 115.185 35.502Z" fill="black"/>
<path d="M160.061 35.502C160.061 35.502 189.183 35.502 189.552 35.502C189.913 35.502 190.123 35.6418 190.123 36.0147C190.123 36.3796 190.123 40.3359 190.123 40.3359H163.909L163.905 59.4539H185.071V52.6282H171.986C171.986 52.6282 171.993 48.6524 171.993 48.3573C171.993 48.0622 172.191 47.7982 172.568 47.7982C175.849 47.7982 189.28 47.7906 189.548 47.7906C189.843 47.7906 190.123 48.0466 190.123 48.3573C190.123 48.6639 190.123 64.8032 190.123 64.8032H151.157V44.4437C151.157 39.5049 155.145 35.502 160.061 35.502Z" fill="black"/>
<path d="M196.063 44.4474V64.8032H234.689C234.689 64.8032 234.689 60.8671 234.689 60.4671C234.689 60.0751 234.437 59.9196 234.124 59.9118C233.821 59.9003 208.825 59.9118 208.825 59.9118L208.833 52.6282H230.758C230.758 52.6282 230.758 48.7185 230.758 48.3573C230.758 47.9885 230.56 47.7864 230.195 47.7864C229.833 47.7864 208.833 47.7864 208.833 47.7864V40.3437H234.675C234.675 40.3437 234.675 36.4028 234.675 36.0106C234.675 35.6184 234.423 35.502 234.113 35.502C233.81 35.502 204.948 35.502 204.948 35.502C200.024 35.502 196.063 39.509 196.063 44.4474Z" fill="black"/>
<path d="M0 35.502H42.5305V40.9687H19.9431V47.3632H42.5305V53.0048H20.0439V59.3607H42.5305V64.8032L0 64.7993V35.502Z" fill="#DA1737"/>
<path fill-rule="evenodd" clip-rule="evenodd" d="M271.59 35.502C275.838 35.502 279.285 39.7963 279.285 44.0632C279.285 48.3339 275.82 52.6282 271.565 52.6282H268.097L281.22 63.7627C281.22 63.7627 282.521 64.8031 281.147 64.8031C280.417 64.8031 269.736 64.8031 267.195 64.8031C266.617 64.8149 266.346 64.4656 265.759 63.9919C266.22 64.3062 252.631 52.6282 252.631 52.6282V64.8031H239.892V44.4474C239.892 39.509 243.855 35.502 248.771 35.502H271.59ZM269.844 47.8138C271.202 47.8138 273.142 46.4043 273.142 44.0786C273.142 41.5006 271.319 40.3554 269.844 40.3554H252.631V47.8138L269.844 47.8021V47.8138Z" fill="black"/>
<path d="M276.002 116.364V111.67H268.407V107.19H273.936V102.717H268.407V99.0244H275.173L275.582 94.3887H262.723V116.364H276.002Z" fill="black"/>
<path d="M302.135 116.364V103.761C302.135 102.678 302.227 100.613 302.323 99.3119C301.85 100.71 301.311 101.948 300.737 103.124L294.169 116.364H290.387V94.3887H294.038V107.124C294.038 108.362 293.912 110.237 293.818 111.317C294.359 109.729 294.862 108.618 295.5 107.314L301.85 94.3887H305.788V116.364H302.135Z" fill="black"/>
<path d="M316.69 106.421C317.862 106.421 319.317 106.448 320.332 107.368C321.186 108.16 321.309 109.174 321.309 109.935C321.309 110.789 321.158 111.927 320.27 112.781C319.379 113.631 318.273 113.794 317.167 113.794C315.71 113.794 313.998 113.476 312.224 112.152L310.546 114.617C310.835 114.808 311.845 115.506 313.02 115.949C314.535 116.516 316.123 116.644 317.353 116.644C319.317 116.644 321.853 116.36 323.687 114.489C324.763 113.414 325.493 111.833 325.493 110.028C325.493 108.191 324.763 107.023 324.066 106.324C323.249 105.501 322.005 104.996 320.963 104.806C321.821 104.553 322.641 104.076 323.249 103.478C324.316 102.434 324.633 101.261 324.633 99.9293C324.633 97.8753 323.779 96.4195 322.388 95.4061C320.837 94.2956 319.097 94.1055 317.543 94.1055C316.375 94.1055 315.202 94.2026 313.874 94.6451C312.921 94.9636 312.072 95.371 311.182 96.004L312.891 98.4113C313.401 97.9998 313.998 97.6542 314.507 97.4289C315.294 97.0835 316.123 96.9593 316.942 96.9593C317.605 96.9593 318.877 97.0174 319.76 97.9026C320.203 98.3141 320.681 99.0751 320.681 100.244C320.681 101.354 320.27 102.274 319.698 102.779C319.223 103.191 318.402 103.629 316.91 103.629H314.698V106.421H316.69Z" fill="black"/>
<path d="M352.179 114.307H342.767C343.377 112.928 344.431 110.401 345.039 108.253C346.001 104.798 346.32 100.504 346.384 99.4166L346.574 96.4388H352.179V114.307ZM354.809 114.307V94.3887H344.367L344.208 97.7199C344.077 100.636 343.793 103.835 342.925 107.197C342.673 108.191 341.902 110.979 340.3 114.307H338.923V122.277H341.486V116.353H354.485V122.277H357.049V114.307H354.809Z" fill="black"/>
<path d="M375.177 116.364V114.124H365.474V106.021H373.031V103.781H365.474V96.6367H374.507L374.856 94.3887H362.851V116.364H375.177Z" fill="black"/>
<path d="M390.193 104.289C389.649 104.899 388.881 105.477 386.769 105.477H383.084V96.6018H385.872C387.501 96.6018 388.977 96.7649 390.035 97.6928C390.834 98.3955 391.316 99.4515 391.316 101.086C391.316 102.686 390.866 103.555 390.193 104.289ZM391.412 95.4176C390.003 94.4858 388.626 94.3887 386.609 94.3887H380.458V116.364H383.084V107.621H386.932C388.275 107.621 390.418 107.558 392.243 105.893C393.909 104.386 394.228 102.305 394.228 100.671C394.228 99.3544 393.909 97.0211 391.412 95.4176Z" fill="black"/>
<path d="M411.36 116.364V114.124H401.654V106.021H409.216V103.781H401.654V96.6367H410.688L411.041 94.3887H399.031V116.364H411.36Z" fill="black"/>
<path d="M427.118 113.289C426.188 114.124 424.841 114.221 423.85 114.221H419.177V106.021H423.051C424.297 106.021 425.768 106.021 426.829 106.821C427.533 107.364 428.27 108.455 428.27 110.315C428.27 111.821 427.692 112.781 427.118 113.289ZM419.177 96.5396H422.282C423.402 96.5396 424.747 96.4425 425.899 97.3706C426.67 98.0113 427.178 99.0361 427.178 100.251C427.178 101.439 426.703 102.43 426.058 103.012C425.036 103.909 423.691 103.878 422.987 103.878H419.177V96.5396ZM429.037 105.858C428.27 105.283 427.178 104.868 426.156 104.709C426.478 104.612 427.625 104.258 428.589 103.365C429.808 102.239 430.092 100.896 430.092 99.9018C430.092 98.1082 429.138 96.5396 427.788 95.6039C425.993 94.3887 423.786 94.3887 421.8 94.3887H416.644V116.364H422.314C425.163 116.364 427.533 116.302 429.291 114.636C430.223 113.774 431.024 112.299 431.024 110.346C431.024 108.518 430.352 106.852 429.037 105.858Z" fill="black"/>
<path d="M439.858 107.461L443.316 96.6987L446.676 107.461H439.858ZM445.141 94.3887H441.714L434.382 116.364H437.042L439.155 109.605H447.353L449.432 116.364H452.411L445.141 94.3887Z" fill="black"/>
<path d="M459 114.446C459 113.27 458.039 112.35 456.813 112.35C455.627 112.35 454.686 113.27 454.686 114.446C454.686 115.658 455.652 116.644 456.882 116.644C458.039 116.644 459 115.658 459 114.446Z" fill="black"/>
<path d="M222.109 94.3887H216.781V116.364H239.699V94.3887H234.372V111.954H230.909V94.3887H225.577V111.954H222.109V94.3887Z" fill="black"/>
<path d="M244.945 116.364V94.3887H257.809L257.398 99.0244H250.63V102.717H256.159V107.19H250.63V111.67H258.222V116.364H244.945Z" fill="black"/>
<path d="M164.303 116.36V98.8033H160.867L160.768 101.455C160.739 102.142 160.55 106.906 160.11 110.187C159.92 111.6 159.607 113.394 158.407 114.629C157.114 115.949 155.254 116.267 153.992 116.454L152.322 116.706L151.157 112.769L151.977 112.544C152.417 112.419 153.078 112.167 153.522 111.884C154.183 111.445 154.465 110.94 154.656 110.404C155.003 109.426 155.254 107.628 155.32 106.996C155.63 104.32 155.791 100.884 155.854 98.3955L155.946 94.3887H169.943V116.36H164.303Z" fill="black"/>
<path d="M205.632 116.364V108.044C204.308 108.549 202.732 108.673 202.004 108.673C200.366 108.673 198.6 108.261 197.594 107.38C196.111 106.06 196.018 104.006 196.018 102.841V94.3887H201.66V101.548C201.66 101.991 201.69 103.124 202.072 103.66C202.483 104.258 203.205 104.324 203.678 104.324C204.245 104.324 204.972 104.2 205.632 103.975V94.3887H211.277V116.364H205.632Z" fill="black"/>
<path d="M192.868 94.3887H186.908L184.672 101.207C184.233 102.534 183.724 104.965 183.506 106.258H183.382C183.254 105.089 182.78 103.381 182.621 102.911L179.88 94.3887H173.671L178.334 106.479C179.154 108.591 179.468 109.597 179.724 110.672L181.456 110.486L181.328 110.832C180.858 112.156 180.384 112.726 180.008 113.037C179.406 113.549 178.431 113.926 177.643 114.05L176.381 114.271L178.307 118.057L180.07 117.774C181.522 117.552 182.905 117.114 183.918 116.069C184.99 114.994 185.65 113.103 186.753 110.265L192.868 94.3887Z" fill="black"/>
</g>
<defs>
<clipPath id="clip0_90_47">
<rect width="459" height="124" fill="white"/>
</clipPath>
</defs>
</svg>
