<svg width="430" height="124" viewBox="0 0 430 124" fill="none" xmlns="http://www.w3.org/2000/svg">
<g clip-path="url(#clip0_90_82)">
<path d="M59.028 11.9434H5.5903C2.91772 11.9434 0.763672 13.8653 0.763672 16.2725V92.5782C0.763672 94.9964 2.91772 96.91 5.5903 96.91H14.6313C17.3066 96.91 19.4579 94.9964 19.4579 92.5782V65.1089C19.4579 62.6961 21.6202 60.8018 24.3065 60.8018H47.4523C50.1249 60.8018 52.29 58.88 52.29 56.4671V50.2244C52.29 47.8144 50.1249 45.9036 47.4523 45.9036H24.3065C21.6202 45.9036 19.4579 43.8768 19.4579 41.4559V31.1542C19.4579 28.7304 21.6202 26.8196 24.3065 26.8196H59.028C61.5654 26.8196 63.7332 24.7984 63.7332 22.3773V16.2725C63.7332 13.8653 61.5654 11.9434 59.028 11.9434Z" fill="#F46F1B"/>
<path d="M83.9644 11.9434H74.9317C72.2591 11.9434 70.0996 13.8653 70.0996 16.2725V92.5782C70.0996 94.9964 72.2591 96.91 74.9317 96.91H83.9644C86.6397 96.91 88.8021 94.9964 88.8021 92.5782V16.2725C88.8021 13.8653 86.6397 11.9434 83.9644 11.9434Z" fill="#F46F1B"/>
<path d="M427.199 92.5743L398.445 50.8603L422.362 16.2686C424.022 13.8641 423.637 11.9395 421.471 11.9395H405.317C403.156 11.9395 402.009 13.8641 400.351 16.2686L387.507 34.9639L374.654 16.2686C373.001 13.8641 371.845 11.9395 369.693 11.9395H353.661C351.503 11.9395 350.998 13.8641 352.772 16.2686L376.56 50.8603L352.648 85.7167L312.581 13.616C311.682 11.9395 309.133 11.9395 308.246 13.616L269.445 81.2578V14.4873C269.445 12.8384 267.287 11.9395 265.885 13.0976L227.973 45.1414C225.939 46.7986 222.887 46.7986 220.843 45.1414L182.941 13.0976C181.537 11.9395 179.367 12.8384 179.367 14.4873V87.3601L160.543 64.2227C159.142 62.5737 160.419 60.6683 162.33 59.2648C169.203 53.7885 172.127 46.5366 172.127 40.0568C172.127 23.3992 158.758 11.9395 136.258 11.9395H103.68C101.004 11.9395 98.8477 13.8641 98.8477 16.2686V92.5743C98.8477 94.9952 101.004 96.9089 103.68 96.9089H112.701C115.377 96.9089 117.542 94.9952 117.542 92.5743V31.1503C117.542 28.7294 119.71 26.8183 122.377 26.8183H134.722C147.95 26.8183 153.421 32.4297 153.421 40.0568C153.421 45.3979 150.495 51.362 144.014 53.6563C140.064 55.0653 135.858 55.1976 135.858 55.1976C133.825 55.1976 132.678 57.3595 133.825 58.7465L161.82 93.3464C163.596 95.6489 166.401 96.9089 169.446 96.9089H193.237C195.921 96.9089 198.075 94.9952 198.075 92.5743V49.8511C198.075 48.1965 200.232 47.2948 201.635 48.453L220.843 64.7272C222.887 66.3818 225.939 66.3818 227.973 64.7272L247.192 48.453C248.584 47.2948 250.742 48.1965 250.742 49.8511V92.5743C250.742 94.9952 252.904 96.9089 255.58 96.9089H275.55C278.481 96.9089 281.28 95.3785 282.413 92.9659L307.736 44.372C308.505 42.861 311.054 42.861 311.814 44.372L321.215 62.9515C322.246 64.7272 320.714 66.8891 318.552 66.8891H308.379C305.573 66.8891 302.9 68.5573 301.765 70.9617L299.218 76.9453C298.331 78.8617 299.979 81.0179 302.266 81.0179H325.81C328.729 81.0179 331.394 82.5456 332.55 84.9611L336.742 92.9659C338.02 95.3785 340.693 96.9089 343.612 96.9089H364.986C367.152 96.9089 368.173 94.9952 369.823 92.5743L387.507 66.8891L405.189 92.5743C406.844 94.9952 407.99 96.9089 410.144 96.9089H426.298C428.473 96.9089 428.857 94.9952 427.199 92.5743Z" fill="#F46F1B"/>
<path d="M184.718 4.31533L220.465 34.0816C222.747 35.9732 225.427 36.1276 227.841 34.2002L263.709 4.31533C265.88 2.53405 265.373 0 262.196 0H186.627C183.447 0 182.556 2.53405 184.718 4.31533Z" fill="#008798"/>
<path d="M299.343 110.911V110.908C297.181 110.908 295.396 112.551 295.396 114.72C295.396 116.752 297.181 118.4 299.343 118.4C301.375 118.4 303.283 116.752 303.283 114.72C303.283 112.551 301.375 110.911 299.343 110.911Z" fill="#008798"/>
<path d="M236.486 110.911V110.908C234.334 110.908 232.424 112.551 232.424 114.72C232.424 116.752 234.334 118.4 236.486 118.4C238.531 118.4 240.435 116.752 240.435 114.72C240.435 112.551 238.531 110.911 236.486 110.911Z" fill="#008798"/>
<path d="M425.667 105.309H396.53H33.1933H4.32189C1.8948 105.309 0 107.47 0 110.144V119.165C0 121.836 1.8948 124.001 4.32189 124.001H33.1933H396.53H425.667C428.079 124.001 430 121.836 430 119.165V110.144C430 107.47 428.079 105.309 425.667 105.309ZM38.0422 111.159H33.1933V111.162H30.5345V113.576H33.1933H36.63V115.473H30.5345V120.058H28.3585V109.254H38.0422V111.159ZM57.4947 115.611C57.4947 118.156 55.4621 120.193 52.4116 120.193C49.2261 120.193 47.1906 118.156 47.1906 115.611V109.254H49.3502V115.234C49.3502 117.133 50.7514 118.401 52.4089 118.401H52.4116C54.0609 118.401 55.3352 117.133 55.3352 115.234V109.254H57.4947V115.611ZM76.0703 120.058L73.6433 116.617H70.3474V120.058H68.185V109.254H74.4127C76.9584 109.254 78.6189 110.905 78.6189 112.934C78.6189 114.47 77.4742 115.727 75.8028 116.24L78.7512 120.058H76.0703ZM98.0743 120.314L93.2478 115.873L90.5723 113.439V120.058H88.4101V108.994L93.2478 113.439L95.9092 115.873V109.254H98.0743V120.314ZM110.932 120.058H108.762V109.251H110.932V120.058ZM129.384 111.159H125.939V120.058H123.777V111.159H120.34V109.254H129.384V111.159ZM148.969 115.611C148.969 118.156 146.936 120.193 143.754 120.193C140.703 120.193 138.648 118.156 138.648 115.611V109.254H140.824V115.234C140.824 117.13 142.093 118.401 143.751 118.401H143.754H143.756C145.403 118.401 146.804 117.13 146.804 115.234V109.254H148.969V115.611ZM167.542 120.058L165.126 116.617H161.689V120.058H159.527V109.254H165.755C168.43 109.254 169.963 110.905 169.963 112.934C169.963 114.47 168.816 115.727 167.283 116.24L170.212 120.058H167.542ZM189.551 111.159H184.719V111.162H182.044V113.576H184.719H188.156V115.473H184.719V115.476H182.044V118.153H184.719V118.156H189.551V120.058H179.881V109.254H189.551V111.159ZM215.593 118.106V118.15C215.85 118.263 216.65 118.401 216.774 118.401C218.167 118.401 219.325 117.759 219.943 116.882L221.735 118.018C220.47 119.554 218.682 120.193 216.774 120.193H216.133C212.97 119.934 210.543 117.632 210.543 114.723C210.543 111.655 212.97 109.378 216.133 109.127H216.774C218.682 109.127 220.47 109.767 221.735 111.28L219.943 112.548C219.195 111.545 218.167 110.905 216.774 110.905C216.65 110.905 215.85 111.035 215.593 111.162V111.208C214.068 111.663 212.827 113.011 212.827 114.721C212.827 116.306 214.068 117.637 215.593 118.106ZM236.488 120.193C232.938 120.193 230.257 117.759 230.257 114.723C230.257 111.545 232.938 109.127 236.488 109.127C239.926 109.127 242.727 111.545 242.727 114.723C242.727 117.759 239.926 120.193 236.488 120.193ZM262.831 120.058H260.789V113.576L257.742 116.369L254.688 113.576V120.058H252.53V109.127L257.742 113.836L262.831 109.127V120.058ZM280.011 116.617H275.802V120.058H273.641V109.254H280.011C282.547 109.254 284.075 110.905 284.075 112.934C284.075 115.101 282.547 116.617 280.011 116.617ZM299.342 120.193C295.782 120.193 293.103 117.756 293.103 114.723C293.103 111.545 295.782 109.127 299.342 109.127C302.768 109.127 305.569 111.545 305.569 114.723C305.569 117.756 302.768 120.193 299.342 120.193ZM325.037 120.314L320.209 115.873L317.536 113.439V120.058H315.374V108.994L320.209 113.439L322.874 115.873V109.254H325.037V120.314ZM345.4 111.159H340.564V111.162H337.889V113.576H340.564H344.13V115.473H340.564V115.476H337.889V118.153H340.564V118.156H345.4V120.058H335.727V109.254H345.4V111.159ZM364.725 120.314L360.017 115.873L357.355 113.439V120.058H355.19V108.994L360.017 113.439L362.693 115.873V109.254H364.725V120.314ZM383.182 111.159H379.742V120.058H377.577V111.159H374.141V109.254H383.182V111.159ZM396.371 120.182C394.757 120.149 392.937 119.636 391.575 118.288L393.229 116.882C393.992 117.759 395.271 118.401 396.53 118.401H396.654C398.188 118.401 399.334 117.762 399.334 116.755C399.334 115.727 398.058 115.608 396.53 115.344V115.347C394.506 115.101 391.957 114.85 391.957 112.286C391.957 110.392 393.992 109.127 396.53 109.127H396.654C398.575 109.127 400.229 109.629 401.364 110.649L399.72 112.044C398.873 111.214 398.025 110.952 397.115 110.864V110.773C396.989 110.773 396.892 110.803 396.77 110.811C396.687 110.809 396.617 110.773 396.53 110.773V110.836C395.102 110.991 394.124 111.625 394.124 112.171C394.124 113.053 395.838 113.414 397.097 113.53C399.259 113.874 401.622 114.172 401.622 116.617C401.622 118.87 399.276 120.146 396.371 120.182Z" fill="#008798"/>
<path d="M165.628 111.161H164.867V111.158H161.689V114.718H165.628C167.156 114.718 167.785 113.952 167.785 112.93C167.785 112.046 167.156 111.161 165.628 111.161Z" fill="#008798"/>
<path d="M74.288 111.161H73.5269V111.158H70.3496V114.718H74.288C75.8079 114.718 76.4587 113.952 76.4587 112.93C76.4587 112.046 75.8079 111.161 74.288 111.161Z" fill="#008798"/>
<path d="M279.748 111.161H278.857V111.158H275.795V114.718H279.748C281.275 114.718 282.04 113.952 282.04 112.93C282.04 112.046 281.275 111.161 279.748 111.161Z" fill="#008798"/>
</g>
<defs>
<clipPath id="clip0_90_82">
<rect width="430" height="124" fill="white"/>
</clipPath>
</defs>
</svg>
