<svg width="199" height="124" viewBox="0 0 199 124" fill="none" xmlns="http://www.w3.org/2000/svg">
<g clip-path="url(#clip0_90_2)">
<path fill-rule="evenodd" clip-rule="evenodd" d="M122.416 82.0983L178.204 49.8889V40.5156L122.416 72.725V82.0983Z" fill="black"/>
<path fill-rule="evenodd" clip-rule="evenodd" d="M122.416 41.5833L178.204 9.3736V0L122.416 32.2096V41.5833Z" fill="black"/>
<path fill-rule="evenodd" clip-rule="evenodd" d="M137.743 115.279C136.66 113.479 135.824 111.382 135.275 108.977C134.843 107.089 134.582 105.072 134.51 103.046C134.436 101.02 134.552 98.9842 134.874 97.056C135.169 95.2798 135.653 93.5857 136.345 92.0227C137.302 89.8632 138.689 87.9043 140.508 86.3888C142.385 84.8228 144.733 83.6956 147.539 83.1426C150.206 82.6168 153.233 82.5997 155.899 83.1406C157.995 83.5655 159.734 84.3275 161.14 85.3491C162.907 86.6319 164.194 88.3871 165.008 90.408C165.786 92.3369 166.125 94.4505 166.203 96.5617C166.227 97.1909 166.221 97.8203 166.221 98.4506H155.362V97.3989C155.363 96.8479 155.34 96.2946 155.287 95.7595C155.177 94.6615 154.936 93.4709 154.323 92.5266C153.814 91.7408 153.088 91.2578 152.185 91.0622C151.383 90.8889 150.468 90.912 149.684 91.1406C148.894 91.3712 148.208 91.8185 147.647 92.4177C146.973 93.138 146.497 94.0385 146.163 94.9597C145.905 95.6702 145.707 96.4609 145.574 97.3114C145.257 99.3253 145.317 101.46 145.644 103.464C145.825 104.571 146.098 105.672 146.469 106.728C147.394 109.361 148.959 111.758 151.267 113.377C152.529 114.262 154.025 114.92 155.804 115.272C157.506 115.609 159.308 115.636 161.033 115.457C162.307 115.325 163.4 115.068 164.437 114.689L165.85 114.171V121.751L165.124 121.988C162.95 122.696 160.592 123.259 158.096 123.547C156.875 123.688 155.634 123.764 154.393 123.759C153.153 123.754 151.914 123.671 150.695 123.493C148.655 123.195 146.717 122.639 144.939 121.799C141.917 120.37 139.459 118.132 137.743 115.279ZM123.468 122.899H122.417V83.615H132.757V122.899H123.468ZM86.8436 91.7329V108.256C86.8426 109.049 86.8607 109.815 86.916 110.527C87.0039 111.663 87.1872 112.954 87.7973 113.952C88.2856 114.751 89.017 115.206 89.9078 115.413C90.9498 115.655 92.0729 115.578 93.1135 115.384C94.1488 115.192 95.1746 114.893 96.193 114.625L96.1931 122.964L95.323 123.117C94.1491 123.323 92.9535 123.487 91.7558 123.598C90.5837 123.705 89.3824 123.774 88.1833 123.763C86.9846 123.753 85.7883 123.665 84.6256 123.459C82.9928 123.171 81.3769 122.627 80.0291 121.635C78.9175 120.817 78.0802 119.745 77.5175 118.485C77.1857 117.744 76.9568 116.96 76.8021 116.149C76.4797 114.464 76.5038 112.76 76.5038 111.055V91.7329H69.6026V83.615H76.5038V72.2222L86.8341 66.2578L86.8431 83.615C91.1935 83.615 95.5447 83.615 99.8955 83.615V72.2222L110.226 66.2578L110.234 83.615H120.681V91.7329H110.236V108.256C110.234 109.049 110.253 109.815 110.308 110.527C110.396 111.663 110.579 112.954 111.189 113.952C111.678 114.751 112.409 115.206 113.299 115.413C114.341 115.655 115.464 115.578 116.505 115.384C117.54 115.192 118.567 114.893 119.585 114.625V122.964L118.715 123.117C117.54 123.323 116.346 123.487 115.148 123.598C113.976 123.705 112.775 123.774 111.575 123.763C110.376 123.753 109.18 123.665 108.017 123.459C106.385 123.171 104.769 122.627 103.421 121.635C102.31 120.817 101.473 119.745 100.909 118.485C100.577 117.744 100.349 116.96 100.194 116.149C99.8718 114.464 99.8955 112.76 99.8955 111.055V91.7329C95.5451 91.7329 91.194 91.7329 86.8436 91.7329ZM60.4684 94.7068C60.4123 94.3499 60.3266 93.9792 60.2051 93.6141C59.8989 92.6975 59.3777 91.8817 58.5867 91.3108C58.2221 91.0473 57.7849 90.8274 57.2479 90.6707C55.805 90.2485 54.0738 90.2979 52.7364 91.0133C51.7176 91.5582 50.9449 92.4661 50.4398 93.4906C50.2386 93.8994 50.0828 94.3152 49.9683 94.7068H60.4684ZM43.1157 115.652C42.0034 113.798 41.1676 111.659 40.6101 109.26C40.0525 106.861 39.7728 104.201 39.7726 101.304C39.7728 99.507 39.8975 97.6786 40.2205 95.8919C40.505 94.3152 40.945 92.7703 41.59 91.3062C42.3548 89.5709 43.4216 87.9588 44.8002 86.6513C46.3844 85.1494 48.3639 84.0452 50.7201 83.4036C52.3001 82.9731 54.049 82.7509 55.962 82.7557C57.3596 82.7527 58.7614 82.8929 60.1215 83.2227C61.8225 83.6353 63.3334 84.3147 64.6333 85.2344C66.1912 86.337 67.4361 87.7961 68.3471 89.4666C69.449 91.4879 70.1035 93.8728 70.3418 96.523C70.4531 97.7648 70.4447 99.0009 70.4447 100.245L70.4448 102.043H60.0038H49.5634C49.6995 103.695 50.0719 105.37 50.6656 106.955C51.186 108.346 51.8867 109.711 52.7781 110.927C53.6692 112.143 54.7514 113.21 56.0342 114.004C57.7632 115.074 59.7243 115.56 61.7497 115.562C63.9116 115.567 66.1267 114.968 68.1396 114.221L69.5546 113.699V121.974L68.8432 122.217C66.9171 122.876 64.9283 123.313 62.7664 123.548C61.5149 123.684 60.2228 123.768 58.93 123.77H58.833L58.6714 123.769C57.2928 123.76 55.9162 123.654 54.5897 123.418C53.125 123.156 51.7513 122.746 50.4787 122.19C49.2057 121.635 48.0332 120.934 46.9713 120.094C45.4197 118.865 44.1313 117.346 43.1157 115.652ZM178.202 104.788C178.202 101.774 178.858 98.8992 180.16 96.1799C180.763 95.034 181.548 93.9978 182.529 93.1469C183.137 92.6026 183.805 92.2505 184.552 92.0969C185.68 91.8641 186.892 91.9023 187.396 93.0863C187.531 93.4027 187.614 93.7513 187.677 94.0646C188.022 95.7845 188.038 98.9929 188.038 100.203V122.899H198.425V96.0543C198.382 92.5399 197.702 88.7044 195.243 86.031C193.251 83.8288 190.779 82.8247 188.131 82.7905C183.861 82.7355 179.397 85.3755 178.202 89.4971L178.202 66.2578L167.872 72.2222V122.899H178.202V104.788ZM27.0843 122.899V102.043H10.7847V122.899H1.0511H0V72.2222H10.7847V93.4359H27.0843V72.2222H37.8696V122.899H27.0843Z" fill="black"/>
<path fill-rule="evenodd" clip-rule="evenodd" d="M122.416 68.5928L178.204 36.3834V27.0098L122.416 59.2191V68.5928Z" fill="black"/>
<path fill-rule="evenodd" clip-rule="evenodd" d="M122.416 55.0872L178.204 22.8776V13.5039L122.416 45.7135V55.0872Z" fill="black"/>
</g>
<defs>
<clipPath id="clip0_90_2">
<rect width="198.425" height="123.769" fill="white"/>
</clipPath>
</defs>
</svg>
