<svg width="458" height="117" viewBox="0 0 458 117" fill="none" xmlns="http://www.w3.org/2000/svg">
<path d="M350.223 23.0096C240.596 34.0271 118.056 45.4346 16.7603 26.5196C11.9367 25.6421 9.2569 19.6946 7.01562 19.3046C107.873 38.1709 230.412 26.6171 339.602 15.6484C343.743 15.2096 348.81 23.1559 350.223 22.9609V23.0096Z" fill="#DE7500"/>
<path d="M109.336 104.862C218.964 93.8445 341.503 82.3882 442.75 101.303C447.623 102.278 450.302 108.128 452.544 108.567C351.637 89.7007 229.147 101.254 119.958 112.223C115.816 112.613 110.749 104.716 109.336 104.911V104.862Z" fill="#2B2A29"/>
<path d="M127.997 78.0967H66.4102V4.38672H89.6025V64.2517H127.997V78.0967ZM152.066 72.6367C151.091 72.978 150.166 73.1242 149.24 73.1242C147.583 73.1242 146.317 72.9292 145.44 72.4417C144.611 71.9542 144.173 71.0767 144.173 69.8092C144.145 69.0347 144.425 68.2808 144.952 67.713C145.44 67.2255 146.17 66.7867 147.096 66.543C148.168 66.2505 149.24 66.0555 150.361 65.9092L154.746 65.5192V71.223C153.945 71.8635 153.038 72.3585 152.066 72.6855V72.6367ZM154.697 78.3892H165.416V59.7667C165.416 56.5492 164.052 54.1605 161.372 52.6005C157.346 50.7621 152.925 49.9578 148.509 50.2605C144.414 50.3228 140.335 50.78 136.328 51.6255V58.2067H137.205C138.813 57.6217 140.421 57.1342 142.078 56.7442C145.585 55.9036 149.253 56.0214 152.699 57.0855C154.064 57.6705 154.746 58.6942 154.746 60.2542V60.4005C151.676 60.5467 148.85 60.7905 146.17 61.083C143.491 61.3755 141.201 61.9117 139.3 62.643C137.603 63.2319 136.091 64.2575 134.915 65.6167C133.941 66.8842 133.454 68.5417 133.454 70.5405C133.454 73.0267 134.428 75.0742 136.377 76.683C138.375 78.2917 140.86 79.1205 143.88 79.1205C146.987 79.1559 150.047 78.3652 152.748 76.8292L154.697 75.513V78.438V78.3892ZM214.042 78.3892V64.7392L213.993 61.3267C213.964 60.5143 213.765 59.7171 213.409 58.9867C213.098 58.4139 212.599 57.9661 211.996 57.7192C211.136 57.4163 210.226 57.2839 209.316 57.3292C208.536 57.3292 207.708 57.4755 206.88 57.768C206.149 58.0605 205.272 58.4505 204.346 58.9867V78.3892H193.627V64.7392C193.627 63.3742 193.627 62.253 193.53 61.3267C193.481 60.3517 193.286 59.6205 192.994 58.9867C192.671 58.4053 192.153 57.9565 191.532 57.7192C190.688 57.4202 189.795 57.2877 188.901 57.3292C188.024 57.3292 187.195 57.4755 186.367 57.8167C185.539 58.158 184.711 58.548 183.931 58.9867V78.3892H173.212V51.0892H183.931V54.0142C185.685 52.8442 187.342 51.918 188.852 51.2842C190.411 50.6017 192.117 50.2605 194.065 50.2605C196.112 50.2605 197.963 50.6505 199.523 51.4792C201.13 52.2592 202.3 53.4292 203.177 54.9892C205.223 53.5267 207.123 52.308 208.926 51.4792C211.975 50.0347 215.46 49.808 218.671 50.8455C219.885 51.2238 220.998 51.872 221.926 52.7415C222.854 53.6111 223.573 54.6795 224.03 55.8667C224.518 57.0367 224.761 58.6455 224.761 60.5955V78.3892H214.042ZM250.195 72.6367C249.22 72.978 248.246 73.1242 247.369 73.1242C245.712 73.1242 244.445 72.9292 243.568 72.4417C242.74 71.9542 242.302 71.0767 242.302 69.8092C242.274 69.0347 242.554 68.2808 243.081 67.713C243.568 67.2255 244.299 66.7867 245.225 66.543C246.297 66.2505 247.369 66.0555 248.49 65.9092L252.826 65.5192V71.223C252.04 71.8585 251.15 72.3533 250.195 72.6855V72.6367ZM252.826 78.3892H263.545V59.7667C263.545 56.5492 262.181 54.1605 259.501 52.6005C255.475 50.7621 251.053 49.9578 246.638 50.2605C242.544 50.3264 238.465 50.7835 234.457 51.6255V58.2067H235.334C236.893 57.6217 238.55 57.1342 240.207 56.7442C243.714 55.9036 247.382 56.0214 250.828 57.0855C252.192 57.6705 252.875 58.6942 252.875 60.2542V60.4005C249.805 60.5467 246.93 60.7905 244.299 61.083C241.62 61.3755 239.33 61.9117 237.381 62.643C235.48 63.3742 234.067 64.3492 232.995 65.6167C232.021 66.8842 231.534 68.5417 231.534 70.5405C231.534 73.0267 232.508 75.0742 234.506 76.683C236.455 78.2917 238.988 79.1205 242.009 79.1205C243.617 79.1205 244.884 79.023 245.761 78.828C247.56 78.4323 249.286 77.7579 250.877 76.8292L252.826 75.513V78.438V78.3892ZM294.29 59.0842H293.364C291.941 58.8976 290.51 58.7837 289.076 58.743C286.683 58.9406 284.315 59.3816 282.011 60.0592V78.3892H271.39V51.0892H282.109V54.9892C283.494 53.9904 284.961 53.1099 286.494 52.3567C288.562 51.3275 290.863 50.8569 293.169 50.9917L294.29 51.0892V59.0842ZM313.243 78.9742C308.858 78.9742 305.74 78.243 303.742 76.8292C301.793 75.3667 300.818 73.0267 300.818 69.8092V56.988H296.677V51.0405H300.77V43.2405H311.489V51.0405H321.672V56.988H311.44V66.738L311.489 69.2242C311.489 69.9555 311.684 70.5892 311.976 71.1742C312.268 71.7105 312.756 72.1492 313.438 72.4905C314.217 72.8317 315.241 72.978 316.605 72.978C317.19 72.978 317.92 72.9292 318.846 72.7342L320.795 72.2467H321.672V78.1942C318.891 78.7001 316.07 78.9611 313.243 78.9742ZM360.553 51.0405L331.563 114.415L320.941 115.049L337.994 78.4867L324.449 51.0405H335.656L342.818 68.1517L349.542 51.0892H360.553V51.0405Z" fill="#E9132F"/>
</svg>
