<svg width="566" height="124" viewBox="0 0 566 124" fill="none" xmlns="http://www.w3.org/2000/svg">
<path fill-rule="evenodd" clip-rule="evenodd" d="M4.46875 85.4883H562.387V121.338H4.46875V85.4883Z" fill="#C1002B"/>
<path fill-rule="evenodd" clip-rule="evenodd" d="M379.838 9.69916C375.464 9.69916 371.376 10.7452 367.668 12.9323C363.96 15.1194 361.012 18.1624 358.825 22.0611C356.639 25.9599 355.498 30.0489 355.498 34.4231C355.498 38.7022 356.544 42.8863 358.825 46.7851C361.012 50.6838 364.055 53.8219 367.763 56.009C371.471 58.1961 375.464 59.3372 379.743 59.3372C384.021 59.3372 388.205 58.1961 392.008 56.1041C395.906 53.917 398.853 50.9691 400.945 47.2605C403.037 43.5519 404.083 39.3679 404.083 34.7084C404.083 27.5765 401.706 21.6808 397.047 16.9262C392.388 12.1716 386.683 9.69916 379.838 9.69916ZM411.309 3.70836V64.9476H403.512V54.3924C400.184 58.3863 396.476 61.4292 392.388 63.4262C388.3 65.4231 383.831 66.4691 378.887 66.4691C370.235 66.4691 362.819 63.3311 356.639 57.055C350.554 50.7789 347.416 43.1716 347.416 34.1378C347.416 25.2943 350.554 17.782 356.734 11.5059C362.914 5.22983 370.33 2.0918 379.077 2.0918C384.116 2.0918 388.68 3.13781 392.673 5.32493C396.762 7.51204 400.279 10.6501 403.417 14.9292V3.70836H411.309Z" fill="#C1002B"/>
<path fill-rule="evenodd" clip-rule="evenodd" d="M315.564 5.32422H317.751L338.573 66.4684H330.301L315.184 21.3948L291.699 66.4684H290.178L266.599 21.3948L251.576 66.4684H243.305L264.222 5.32422H266.314L291.034 53.1555L315.564 5.32422Z" fill="#C1002B"/>
<path fill-rule="evenodd" clip-rule="evenodd" d="M191.203 5.32422H199.19V31.0942L227.523 5.32422H238.457L207.461 33.2813L240.929 66.4684H229.805L201.662 38.2261L199.19 40.4132V66.4684H191.203V5.32422Z" fill="#C1002B"/>
<path fill-rule="evenodd" clip-rule="evenodd" d="M142.047 9.69916C137.674 9.69916 133.585 10.7452 129.877 12.9323C126.169 15.1194 123.222 18.1624 121.035 22.0611C118.848 25.9599 117.707 30.0489 117.707 34.4231C117.707 38.7022 118.753 42.8863 121.035 46.7851C123.222 50.6838 126.264 53.8219 129.972 56.009C133.68 58.1961 137.674 59.3372 141.952 59.3372C146.231 59.3372 150.319 58.1961 154.217 56.1041C158.115 53.917 161.063 50.9691 163.155 47.2605C165.246 43.5519 166.292 39.3679 166.292 34.7084C166.292 27.5765 163.915 21.6808 159.256 16.9262C154.598 12.1716 148.893 9.69916 142.047 9.69916ZM173.518 3.70836V64.9476H165.722V54.3924C162.394 58.3863 158.686 61.4292 154.598 63.4262C150.509 65.4231 146.041 66.4691 141.096 66.4691C132.444 66.4691 125.028 63.3311 118.943 57.055C112.858 50.7789 109.721 43.1716 109.721 34.1378C109.721 25.2943 112.858 17.782 119.038 11.5059C125.218 5.22983 132.635 2.0918 141.382 2.0918C146.421 2.0918 150.985 3.13781 154.978 5.32493C159.066 7.51204 162.584 10.6501 165.722 14.9292V3.70836H173.518Z" fill="#C1002B"/>
<path fill-rule="evenodd" clip-rule="evenodd" d="M77.678 5.32422H79.9598L100.687 66.4684H92.5101L77.3927 21.3948L53.9084 66.4684H52.3872L28.8078 21.3948L13.7855 66.4684H5.51367L26.4309 5.32422H28.5226L53.2429 53.1555L77.678 5.32422Z" fill="#C1002B"/>
<path fill-rule="evenodd" clip-rule="evenodd" d="M436.314 10.3654L436.885 36.9912L455.9 37.0863C470.827 37.1814 478.149 33.0924 477.958 23.4881C477.768 14.2642 471.018 10.3654 455.805 10.3654H436.314ZM428.042 4.27952H448.009C459.228 4.27952 463.697 3.99424 467.215 4.65989C482.332 7.60774 487.846 13.4084 487.371 23.393C486.801 35.2795 480.716 40.2243 456.661 42.982L492.22 66.4697H479.765L444.301 42.982H436.79L436.219 66.4697H427.947V4.27952H428.042Z" fill="#C1002B"/>
<path fill-rule="evenodd" clip-rule="evenodd" d="M21.5827 106.599V108.12C21.4876 108.12 21.4876 108.215 21.3925 108.215C21.2974 108.215 21.2023 108.31 21.2023 108.31C20.822 108.5 20.4417 108.691 19.9663 108.786C19.4909 108.881 18.9205 108.976 18.35 108.976C16.5435 108.976 15.0223 108.405 13.8813 107.359C12.7404 106.313 12.1699 104.887 12.1699 103.27C12.1699 101.559 12.7404 100.227 13.8813 99.0862C15.0223 98.0402 16.4484 97.4697 18.2549 97.4697C18.9205 97.4697 19.586 97.5648 20.0614 97.6599C20.5368 97.7549 20.9171 97.9451 21.2023 98.1353C21.2974 98.2304 21.3925 98.2304 21.3925 98.2304C21.4876 98.2304 21.4876 98.3255 21.5827 98.3255V99.7519C20.9171 99.2764 20.2516 98.8961 19.7762 98.801C19.3008 98.7059 18.8254 98.6108 18.35 98.6108C17.114 98.6108 16.0681 98.9911 15.1173 99.847C14.1666 100.608 13.6912 101.749 13.6912 103.27C13.6912 104.697 14.1666 105.838 15.0223 106.694C15.878 107.549 16.9238 107.93 18.1598 107.93C18.9205 107.93 19.4909 107.835 20.0614 107.549C20.6319 107.264 21.1073 106.979 21.5827 106.599ZM29.1889 109.071C27.6677 109.071 26.3366 108.5 25.1005 107.549C23.9596 106.503 23.3891 105.172 23.3891 103.27C23.3891 101.654 23.9596 100.322 25.0055 99.1813C26.0513 98.0402 27.4775 97.4697 29.1889 97.4697C30.9003 97.4697 32.3265 98.0402 33.3723 99.1813C34.4182 100.322 34.9887 101.654 34.9887 103.27C34.9887 104.887 34.4182 106.218 33.3723 107.359C32.3265 108.5 30.9003 109.071 29.1889 109.071ZM29.1889 107.93C30.52 107.93 31.5659 107.454 32.3265 106.503C33.0871 105.552 33.4674 104.506 33.4674 103.365C33.4674 102.224 33.0871 101.178 32.3265 100.227C31.5659 99.2764 30.52 98.801 29.1889 98.801C27.8578 98.801 26.812 99.2764 26.0513 100.227C25.2907 101.178 24.9104 102.224 24.9104 103.365C24.9104 104.506 25.2907 105.552 26.0513 106.503C26.812 107.454 27.8578 107.93 29.1889 107.93ZM39.3623 99.847C39.6475 99.3715 39.9327 98.9911 40.218 98.6108C40.5032 98.3255 40.8835 98.0402 41.1687 97.9451C41.454 97.7549 41.7392 97.6599 42.1195 97.6599C42.4048 97.5648 42.69 97.5648 42.9752 97.5648C43.8309 97.5648 44.4965 97.7549 44.9719 98.2304C45.4473 98.7059 45.7325 99.1813 45.9227 99.7519C46.1128 99.3715 46.398 98.9911 46.6833 98.7059C46.9685 98.4206 47.2537 98.2304 47.539 98.0402C47.9193 97.85 48.3947 97.6599 48.775 97.5648C49.1553 97.4697 49.4405 97.4697 49.7258 97.4697C49.9159 97.4697 50.1061 97.4697 50.3913 97.4697C50.6766 97.4697 50.9618 97.5648 51.247 97.7549C51.6273 97.9451 52.1027 98.3255 52.483 98.8961C52.8634 99.4666 53.0535 100.322 53.0535 101.559V108.595H51.5323V101.559C51.5323 101.368 51.5323 101.178 51.5323 100.988C51.5323 100.798 51.4372 100.513 51.4372 100.322C51.3421 99.9421 51.1519 99.5617 50.8667 99.1813C50.5815 98.801 50.1061 98.7059 49.4405 98.7059C49.3455 98.7059 49.1553 98.7059 49.0602 98.7059C48.8701 98.7059 48.775 98.801 48.6799 98.801C48.1094 98.9911 47.539 99.4666 47.0636 100.037C46.5882 100.703 46.303 101.654 46.303 102.795V108.5H44.6866V101.749C44.6866 101.654 44.6866 101.464 44.6866 101.368C44.6866 101.273 44.6866 101.083 44.6866 100.988C44.5916 100.418 44.4965 99.9421 44.2112 99.4666C43.926 98.9911 43.4506 98.801 42.69 98.801C41.8343 98.801 41.0737 99.1813 40.5032 99.9421C39.9327 100.703 39.6475 101.464 39.4573 102.414C39.4573 102.51 39.4573 102.605 39.4573 102.795C39.4573 102.89 39.4573 102.985 39.4573 103.175V108.881H38.0312V97.9451H39.4573V99.847H39.3623ZM56.5714 97.9451H57.9976V99.847C58.2828 99.1813 58.8533 98.7059 59.4237 98.2304C60.0893 97.7549 60.945 97.5648 61.9908 97.5648C63.7023 97.5648 65.0334 98.1353 65.9841 99.1813C66.9349 100.227 67.5054 101.654 67.5054 103.365C67.5054 105.267 66.9349 106.694 65.8891 107.645C64.7481 108.595 63.5121 109.071 62.0859 109.071C61.2302 109.071 60.5647 108.976 59.9942 108.595C59.4237 108.31 59.0434 108.025 58.6631 107.645C58.568 107.549 58.473 107.359 58.3779 107.264C58.2828 107.169 58.1877 107.074 58.1877 106.979V113.825H56.6665V97.9451H56.5714ZM61.9908 107.93C63.2269 107.93 64.1776 107.454 64.8432 106.599C65.5087 105.648 65.794 104.602 65.794 103.365C65.794 103.175 65.794 103.08 65.794 102.89C65.794 102.7 65.794 102.605 65.794 102.414C65.6038 101.464 65.2235 100.703 64.653 99.9421C63.9875 99.1813 63.1318 98.801 61.8007 98.801C60.5647 98.801 59.709 99.2764 58.9484 100.227C58.2828 101.178 57.9025 102.224 57.9025 103.46C57.9025 104.887 58.2828 106.028 59.1385 106.884C59.9942 107.549 60.945 107.93 61.9908 107.93ZM75.587 109.071C74.0658 109.071 72.7347 108.5 71.4987 107.549C70.3577 106.503 69.7873 105.172 69.7873 103.27C69.7873 101.654 70.3577 100.322 71.4036 99.1813C72.4494 98.0402 73.8756 97.4697 75.587 97.4697C77.2984 97.4697 78.7246 98.0402 79.7705 99.1813C80.8163 100.322 81.3868 101.654 81.3868 103.27C81.3868 104.887 80.8163 106.218 79.7705 107.359C78.7246 108.5 77.2984 109.071 75.587 109.071ZM75.587 107.93C76.9181 107.93 77.964 107.454 78.7246 106.503C79.4852 105.552 79.8655 104.506 79.8655 103.365C79.8655 102.224 79.4852 101.178 78.7246 100.227C77.964 99.2764 76.9181 98.801 75.587 98.801C74.2559 98.801 73.2101 99.2764 72.4494 100.227C71.6888 101.178 71.3085 102.224 71.3085 103.365C71.3085 104.506 71.6888 105.552 72.4494 106.503C73.115 107.454 74.1608 107.93 75.587 107.93ZM84.3342 108.691V97.9451H85.8555V99.7519C85.9505 99.6568 86.0456 99.4666 86.1407 99.3715C86.2358 99.1813 86.3308 98.9911 86.521 98.8961C86.8062 98.6108 87.1865 98.3255 87.6619 98.0402C88.1373 97.7549 88.7078 97.6599 89.4684 97.6599C90.6094 97.6599 91.5601 98.0402 92.2257 98.801C92.8912 99.5617 93.1765 100.608 93.1765 101.939V108.786H91.7503V102.129C91.7503 101.939 91.7503 101.844 91.7503 101.654C91.7503 101.464 91.7503 101.368 91.7503 101.178C91.6552 100.608 91.4651 100.037 91.1798 99.5617C90.8946 99.0862 90.229 98.801 89.3733 98.801C88.3275 98.801 87.5669 99.1813 86.9964 99.9421C86.4259 100.703 86.1407 101.559 86.0456 102.51C86.0456 102.605 86.0456 102.7 86.0456 102.795C86.0456 102.89 86.0456 102.985 86.0456 103.08V108.595H84.3342V108.691ZM105.251 105.267L106.392 105.838C106.012 106.694 105.346 107.454 104.586 108.12C103.825 108.786 102.779 109.071 101.448 109.071C99.7369 109.071 98.4058 108.5 97.3599 107.359C96.4091 106.218 95.9337 104.887 95.9337 103.365C95.9337 103.08 95.9337 102.795 96.0288 102.51C96.0288 102.224 96.1239 101.939 96.219 101.654C96.5042 100.608 97.0747 99.7519 97.8353 98.8961C98.691 98.0402 99.8319 97.6599 101.448 97.6599C102.874 97.6599 103.92 98.0402 104.681 98.801C105.442 99.5617 105.917 100.513 106.202 101.464C106.297 101.654 106.297 101.939 106.297 102.129C106.297 102.319 106.297 102.605 106.297 102.795V103.46H97.455C97.455 103.651 97.455 103.746 97.455 103.936C97.455 104.126 97.455 104.221 97.455 104.411C97.6451 105.267 98.0255 106.028 98.691 106.789C99.3565 107.549 100.212 107.835 101.353 107.835C101.638 107.835 101.924 107.835 102.304 107.74C102.684 107.645 103.065 107.454 103.445 107.264C103.73 107.074 104.015 106.789 104.301 106.503C104.776 106.218 105.061 105.838 105.251 105.267ZM97.7402 102.224H104.966C104.966 101.368 104.586 100.513 104.015 99.7519C103.445 98.9911 102.589 98.7059 101.543 98.7059C100.497 98.7059 99.6418 99.0862 98.9762 99.7519C98.3107 100.418 97.8353 101.273 97.7402 102.224ZM109.34 108.691V97.9451H110.766V99.7519C110.861 99.6568 110.956 99.4666 111.051 99.3715C111.146 99.1813 111.241 98.9911 111.431 98.8961C111.717 98.6108 112.097 98.3255 112.572 98.0402C113.048 97.7549 113.618 97.6599 114.379 97.6599C115.52 97.6599 116.471 98.0402 117.136 98.801C117.802 99.5617 118.087 100.608 118.087 101.939V108.786H116.566V102.129C116.566 101.939 116.566 101.844 116.566 101.654C116.566 101.464 116.566 101.368 116.566 101.178C116.471 100.608 116.28 100.037 115.995 99.5617C115.71 99.0862 115.044 98.801 114.189 98.801C113.143 98.801 112.382 99.1813 111.812 99.9421C111.241 100.703 110.956 101.559 110.861 102.51C110.861 102.605 110.861 102.7 110.861 102.795C110.861 102.89 110.861 102.985 110.861 103.08V108.595H109.34V108.691ZM122.08 108.691V99.1813H120.369V97.9451H122.08V93.8562H123.506V97.9451H125.598V99.0862H123.601V108.595H122.08V108.691ZM126.929 106.503L128.165 105.838C128.355 106.408 128.641 106.884 129.116 107.264C129.591 107.74 130.162 107.93 130.827 107.93C131.493 107.93 132.063 107.74 132.444 107.359C132.824 106.979 133.014 106.503 133.014 105.838C133.014 105.267 132.824 104.792 132.539 104.506C132.158 104.221 131.778 104.031 131.398 103.841C131.208 103.841 131.113 103.746 130.922 103.651C130.732 103.651 130.637 103.556 130.542 103.556C130.542 103.556 130.542 103.556 130.447 103.556H130.352C129.591 103.365 128.926 102.985 128.355 102.605C127.785 102.224 127.405 101.559 127.405 100.608C127.405 99.6568 127.69 98.8961 128.355 98.4206C129.021 97.9451 129.782 97.6599 130.732 97.6599C130.922 97.6599 131.208 97.6599 131.493 97.7549C131.778 97.7549 132.063 97.85 132.349 98.0402C132.634 98.2304 132.919 98.4206 133.299 98.7059C133.585 98.9911 133.87 99.3715 134.155 99.9421L133.014 100.513C132.824 100.037 132.539 99.6568 132.063 99.3715C131.683 99.0862 131.208 98.8961 130.637 98.8961C130.067 98.8961 129.591 99.0862 129.306 99.3715C129.021 99.6568 128.831 100.132 128.831 100.608C128.831 101.083 129.021 101.464 129.306 101.654C129.591 101.844 129.972 102.034 130.447 102.224C130.542 102.224 130.637 102.224 130.732 102.319C130.827 102.319 130.922 102.414 131.018 102.414C131.113 102.414 131.208 102.51 131.303 102.51C131.398 102.51 131.493 102.605 131.588 102.605C132.349 102.89 133.014 103.175 133.68 103.651C134.345 104.126 134.631 104.887 134.631 105.933C134.631 106.123 134.631 106.218 134.631 106.408C134.631 106.599 134.535 106.694 134.535 106.884C134.345 107.454 133.965 108.025 133.395 108.5C132.824 108.976 131.968 109.261 130.732 109.261C130.542 109.261 130.257 109.261 129.877 109.166C129.496 109.071 129.211 108.976 128.831 108.786C128.45 108.595 128.165 108.31 127.785 108.025C127.405 107.549 127.119 107.074 126.929 106.503ZM154.692 99.847V97.9451H156.023V108.595H154.692V106.789C154.217 107.549 153.741 108.12 152.981 108.5C152.22 108.881 151.554 109.071 150.794 109.071C149.368 109.071 148.037 108.595 146.896 107.645C145.755 106.694 145.184 105.267 145.184 103.365C145.184 101.749 145.66 100.418 146.705 99.2764C147.751 98.1353 149.082 97.5648 150.794 97.5648C151.079 97.5648 151.364 97.5648 151.65 97.6599C151.935 97.6599 152.22 97.7549 152.505 97.85C152.886 98.0402 153.266 98.2304 153.646 98.6108C154.122 98.896 154.407 99.3715 154.692 99.847ZM150.794 107.93C151.935 107.93 152.79 107.549 153.551 106.694C154.312 105.838 154.692 104.792 154.692 103.27C154.692 102.034 154.312 100.988 153.646 100.037C152.981 99.0862 152.03 98.6108 150.794 98.6108C149.558 98.6108 148.607 99.0862 147.846 99.9421C147.086 100.798 146.705 101.939 146.705 103.175C146.705 104.411 147.086 105.457 147.751 106.408C148.607 107.454 149.558 107.93 150.794 107.93ZM159.731 108.691V97.9451H161.252V99.7519C161.347 99.6568 161.443 99.4666 161.538 99.3715C161.633 99.1813 161.728 98.9911 161.918 98.8961C162.203 98.6108 162.583 98.3255 163.059 98.0402C163.534 97.7549 164.105 97.6599 164.865 97.6599C166.006 97.6599 166.957 98.0402 167.623 98.801C168.288 99.5617 168.573 100.608 168.573 101.939V108.786H167.052V102.129C167.052 101.939 167.052 101.844 167.052 101.654C167.052 101.464 167.052 101.368 167.052 101.178C166.957 100.608 166.767 100.037 166.482 99.5617C166.196 99.0862 165.531 98.801 164.675 98.801C163.629 98.801 162.869 99.1813 162.298 99.9421C161.728 100.703 161.443 101.559 161.347 102.51C161.347 102.605 161.347 102.7 161.347 102.795C161.347 102.89 161.347 102.985 161.347 103.08V108.595H159.731V108.691ZM182.36 108.691H181.029V106.884C180.648 107.645 180.078 108.215 179.317 108.595C178.652 108.976 177.891 109.166 177.13 109.166C175.704 109.166 174.373 108.691 173.232 107.74C172.091 106.789 171.521 105.362 171.521 103.46C171.521 101.844 171.996 100.513 173.042 99.3715C174.088 98.2304 175.419 97.6599 177.13 97.6599C177.416 97.6599 177.701 97.6599 178.081 97.7549C178.462 97.85 178.842 97.9451 179.222 98.1353C179.507 98.3255 179.793 98.5157 180.173 98.801C180.458 99.0862 180.743 99.4666 181.029 99.847V90.7181H182.455V108.691H182.36ZM177.035 107.93C178.176 107.93 179.127 107.549 179.888 106.694C180.648 105.838 181.029 104.792 181.029 103.27C181.029 102.034 180.648 100.988 179.983 100.037C179.317 99.0862 178.366 98.6108 177.13 98.6108C175.894 98.6108 174.944 99.0862 174.183 99.9421C173.422 100.798 173.042 101.939 173.042 103.175C173.042 104.411 173.422 105.457 174.088 106.408C174.849 107.454 175.799 107.93 177.035 107.93ZM198.998 99.847C199.284 99.3715 199.569 98.9911 199.854 98.6108C200.139 98.3255 200.52 98.0402 200.805 97.9451C201.09 97.7549 201.375 97.6599 201.756 97.6599C202.041 97.5648 202.326 97.5648 202.611 97.5648C203.467 97.5648 204.133 97.7549 204.608 98.2304C205.083 98.7059 205.369 99.1813 205.559 99.7519C205.749 99.3715 206.034 98.9911 206.319 98.7059C206.605 98.4206 206.89 98.2304 207.175 98.0402C207.555 97.85 208.031 97.6599 208.411 97.5648C208.791 97.4697 209.077 97.4697 209.362 97.4697C209.552 97.4697 209.742 97.4697 210.027 97.4697C210.313 97.4697 210.598 97.5648 210.883 97.7549C211.263 97.9451 211.739 98.3255 212.119 98.8961C212.5 99.4666 212.69 100.322 212.69 101.559V108.595H211.073V101.559C211.073 101.368 211.073 101.178 211.073 100.988C211.073 100.798 210.978 100.513 210.978 100.322C210.883 99.9421 210.693 99.5617 210.408 99.1813C210.123 98.801 209.647 98.7059 208.982 98.7059C208.887 98.7059 208.696 98.7059 208.601 98.7059C208.411 98.7059 208.316 98.801 208.221 98.801C207.651 98.9911 207.08 99.4666 206.605 100.037C206.129 100.608 205.844 101.654 205.844 102.795V108.5H204.418V101.749C204.418 101.654 204.418 101.464 204.418 101.368C204.418 101.273 204.418 101.083 204.418 100.988C204.323 100.418 204.228 99.9421 203.942 99.4666C203.657 98.9911 203.182 98.801 202.421 98.801C201.566 98.801 200.805 99.1813 200.234 99.9421C199.664 100.703 199.284 101.464 199.189 102.414C199.189 102.51 199.189 102.605 199.189 102.795C199.189 102.89 199.189 102.985 199.189 103.175V108.881H197.667V97.9451H199.189V99.847H198.998ZM224.765 105.267L225.906 105.838C225.525 106.694 224.86 107.454 224.099 108.12C223.338 108.786 222.293 109.071 220.961 109.071C219.25 109.071 217.919 108.5 216.873 107.359C215.922 106.218 215.447 104.887 215.447 103.365C215.447 103.08 215.447 102.795 215.542 102.51C215.542 102.224 215.637 101.939 215.732 101.654C216.017 100.608 216.588 99.7519 217.348 98.8961C218.204 98.0402 219.345 97.6599 220.961 97.6599C222.388 97.6599 223.433 98.0402 224.194 98.801C224.955 99.5617 225.43 100.513 225.715 101.464C225.81 101.654 225.81 101.939 225.81 102.129C225.81 102.319 225.81 102.605 225.81 102.795V103.46H216.968C216.968 103.651 216.968 103.746 216.968 103.936C216.968 104.126 216.968 104.221 217.063 104.411C217.253 105.267 217.634 106.028 218.299 106.789C218.965 107.549 219.821 107.835 220.961 107.835C221.247 107.835 221.532 107.835 221.912 107.74C222.293 107.645 222.673 107.454 223.053 107.264C223.338 107.074 223.624 106.789 223.909 106.503C224.289 106.218 224.479 105.838 224.765 105.267ZM217.158 102.224H224.384C224.384 101.368 224.004 100.513 223.433 99.7519C222.863 98.9911 222.007 98.7059 220.961 98.7059C219.916 98.7059 219.06 99.0862 218.394 99.7519C217.729 100.418 217.348 101.273 217.158 102.224ZM237.6 106.599V108.12C237.505 108.12 237.505 108.215 237.41 108.215C237.315 108.215 237.22 108.31 237.22 108.31C236.839 108.5 236.459 108.691 235.984 108.786C235.508 108.881 234.938 108.976 234.367 108.976C232.561 108.976 231.04 108.405 229.899 107.359C228.758 106.218 228.187 104.887 228.187 103.27C228.187 101.559 228.758 100.227 229.899 99.0862C231.04 98.0402 232.466 97.4697 234.272 97.4697C234.938 97.4697 235.603 97.5648 236.079 97.6599C236.554 97.7549 236.935 97.9451 237.22 98.1353C237.315 98.2304 237.41 98.2304 237.41 98.2304C237.505 98.2304 237.505 98.3255 237.6 98.3255V99.7519C236.935 99.2764 236.269 98.8961 235.794 98.801C235.318 98.7059 234.843 98.6108 234.367 98.6108C233.131 98.6108 232.086 98.9911 231.135 99.847C230.184 100.608 229.709 101.749 229.709 103.27C229.709 104.697 230.184 105.838 231.04 106.694C231.895 107.549 232.941 107.93 234.177 107.93C234.938 107.93 235.508 107.835 236.079 107.549C236.649 107.264 237.125 106.979 237.6 106.599ZM240.072 108.691V90.623H241.498V99.7519C241.593 99.6568 241.688 99.4666 241.784 99.3715C241.879 99.1813 241.974 98.9911 242.164 98.8961C242.449 98.6108 242.829 98.3255 243.305 98.0402C243.78 97.7549 244.351 97.6599 245.111 97.6599C246.252 97.6599 247.203 98.0402 247.869 98.801C248.534 99.5617 248.819 100.608 248.819 101.939V108.786H247.298V102.129C247.298 101.939 247.298 101.844 247.298 101.654C247.298 101.464 247.298 101.368 247.298 101.178C247.203 100.608 247.013 100.037 246.728 99.5617C246.442 99.0862 245.777 98.801 244.921 98.801C243.875 98.801 243.115 99.1813 242.544 99.9421C241.974 100.703 241.688 101.559 241.593 102.51C241.593 102.605 241.593 102.7 241.593 102.795C241.593 102.89 241.593 102.985 241.593 103.08V108.595H240.072V108.691ZM261.275 99.847V97.9451H262.606V108.595H261.275V106.789C260.894 107.549 260.324 108.12 259.563 108.5C258.898 108.881 258.137 109.071 257.376 109.071C255.95 109.071 254.619 108.595 253.478 107.645C252.337 106.694 251.767 105.267 251.767 103.365C251.767 101.749 252.242 100.418 253.288 99.2764C254.334 98.1353 255.665 97.5648 257.376 97.5648C257.662 97.5648 257.947 97.5648 258.232 97.6599C258.517 97.6599 258.803 97.7549 259.088 97.85C259.468 98.0402 259.848 98.2304 260.229 98.6108C260.609 98.896 260.989 99.3715 261.275 99.847ZM257.376 107.93C258.517 107.93 259.373 107.549 260.134 106.694C260.894 105.838 261.275 104.792 261.275 103.27C261.275 102.034 260.894 100.988 260.229 100.037C259.563 99.0862 258.612 98.6108 257.376 98.6108C256.14 98.6108 255.19 99.0862 254.429 99.9421C253.668 100.798 253.288 101.939 253.288 103.175C253.288 104.411 253.668 105.457 254.334 106.408C255.094 107.454 256.14 107.93 257.376 107.93ZM266.314 108.691V97.9451H267.74V99.7519C267.835 99.6568 267.93 99.4666 268.025 99.3715C268.12 99.1813 268.215 98.9911 268.405 98.8961C268.691 98.6108 269.071 98.3255 269.546 98.0402C270.022 97.7549 270.592 97.6599 271.353 97.6599C272.494 97.6599 273.445 98.0402 274.11 98.801C274.776 99.5617 275.061 100.608 275.061 101.939V108.786H273.54V102.129C273.54 101.939 273.54 101.844 273.54 101.654C273.54 101.464 273.54 101.368 273.54 101.178C273.445 100.608 273.254 100.037 272.969 99.5617C272.684 99.0862 272.018 98.801 271.163 98.801C270.117 98.801 269.356 99.1813 268.786 99.9421C268.215 100.703 267.93 101.559 267.835 102.51C267.835 102.605 267.835 102.7 267.835 102.795C267.835 102.89 267.835 102.985 267.835 103.08V108.595H266.314V108.691ZM278.674 97.9451H280.1V108.595H278.674V97.9451ZM278.294 94.3316C278.294 94.0464 278.389 93.7611 278.579 93.5709C278.769 93.3807 279.054 93.2856 279.434 93.2856C279.72 93.2856 280.005 93.3807 280.29 93.5709C280.48 93.7611 280.575 94.0464 280.575 94.4267C280.575 94.8071 280.48 94.9973 280.29 95.2826C280.1 95.4727 279.815 95.5678 279.53 95.5678C279.244 95.5678 278.959 95.4727 278.769 95.2826C278.389 94.9973 278.294 94.712 278.294 94.3316ZM282.762 106.503L283.998 105.838C284.188 106.408 284.474 106.884 284.949 107.264C285.424 107.74 285.995 107.93 286.66 107.93C287.326 107.93 287.896 107.74 288.277 107.359C288.657 106.979 288.847 106.503 288.847 105.838C288.847 105.267 288.657 104.792 288.372 104.506C287.992 104.221 287.611 104.031 287.231 103.841C287.041 103.841 286.946 103.746 286.756 103.651C286.565 103.651 286.47 103.556 286.375 103.556C286.375 103.556 286.375 103.556 286.28 103.556H286.185C285.424 103.365 284.759 102.985 284.188 102.605C283.618 102.224 283.238 101.559 283.238 100.608C283.238 99.6568 283.618 98.8961 284.188 98.4206C284.854 97.9451 285.615 97.6599 286.565 97.6599C286.756 97.6599 287.041 97.6599 287.326 97.7549C287.611 97.7549 287.896 97.85 288.182 98.0402C288.467 98.2304 288.752 98.4206 289.132 98.7059C289.418 98.9911 289.703 99.3715 289.988 99.9421L288.847 100.513C288.657 100.037 288.372 99.6568 287.896 99.3715C287.516 99.0862 287.041 98.8961 286.47 98.8961C285.9 98.8961 285.424 99.0862 285.139 99.3715C284.854 99.6568 284.664 100.132 284.664 100.608C284.664 101.083 284.854 101.464 285.139 101.654C285.424 101.844 285.805 102.034 286.28 102.224C286.375 102.224 286.47 102.224 286.565 102.319C286.66 102.319 286.756 102.414 286.851 102.414C286.946 102.414 287.041 102.51 287.136 102.51C287.231 102.51 287.326 102.605 287.421 102.605C288.182 102.89 288.847 103.175 289.513 103.651C290.178 104.126 290.464 104.887 290.464 105.933C290.464 106.123 290.464 106.218 290.464 106.408C290.464 106.599 290.368 106.694 290.368 106.884C290.178 107.454 289.798 108.025 289.228 108.5C288.657 108.976 287.801 109.261 286.565 109.261C286.375 109.261 286.09 109.261 285.71 109.166C285.329 109.071 285.044 108.976 284.664 108.786C284.283 108.595 283.998 108.31 283.618 108.025C283.333 107.549 283.047 107.074 282.762 106.503ZM294.647 99.847C294.932 99.3715 295.217 98.9911 295.503 98.6108C295.788 98.3255 296.168 98.0402 296.453 97.9451C296.739 97.7549 297.024 97.6599 297.404 97.6599C297.689 97.5648 297.975 97.5648 298.26 97.5648C299.116 97.5648 299.781 97.7549 300.257 98.2304C300.732 98.7059 301.017 99.1813 301.207 99.7519C301.398 99.3715 301.683 98.9911 301.968 98.7059C302.253 98.4206 302.538 98.2304 302.824 98.0402C303.204 97.85 303.679 97.6599 304.06 97.5648C304.44 97.4697 304.725 97.4697 305.011 97.4697C305.201 97.4697 305.391 97.4697 305.676 97.4697C305.961 97.4697 306.247 97.5648 306.532 97.7549C306.912 97.9451 307.387 98.3255 307.768 98.8961C308.148 99.4666 308.338 100.322 308.338 101.559V108.595H306.817V101.559C306.817 101.368 306.817 101.178 306.817 100.988C306.817 100.798 306.817 100.513 306.722 100.322C306.627 99.9421 306.437 99.5617 306.151 99.1813C305.866 98.801 305.391 98.7059 304.725 98.7059C304.63 98.7059 304.44 98.7059 304.345 98.7059C304.155 98.7059 304.06 98.801 303.965 98.801C303.394 98.9911 302.824 99.4666 302.348 100.037C301.873 100.608 301.588 101.654 301.588 102.795V108.5H300.066V101.749C300.066 101.654 300.066 101.464 300.066 101.368C300.066 101.273 300.066 101.083 300.066 100.988C300.066 100.418 299.876 99.9421 299.591 99.4666C299.306 98.9911 298.83 98.801 298.07 98.801C297.214 98.801 296.453 99.1813 295.883 99.9421C295.313 100.703 294.932 101.464 294.837 102.414C294.837 102.51 294.837 102.605 294.837 102.795C294.837 102.89 294.837 102.985 294.837 103.175V108.881H293.411V97.9451H294.837V99.847H294.647ZM310.905 106.503L312.141 105.838C312.332 106.408 312.617 106.884 313.092 107.264C313.568 107.74 314.138 107.93 314.804 107.93C315.469 107.93 316.04 107.74 316.42 107.359C316.8 106.979 316.99 106.503 316.99 105.838C316.99 105.267 316.8 104.792 316.515 104.506C316.135 104.221 315.754 104.031 315.374 103.841C315.184 103.841 315.089 103.746 314.899 103.651C314.708 103.651 314.613 103.556 314.518 103.556C314.518 103.556 314.518 103.556 314.423 103.556H314.328C313.568 103.365 312.902 102.985 312.332 102.605C311.761 102.224 311.381 101.559 311.381 100.608C311.381 99.6568 311.666 98.8961 312.332 98.4206C312.997 97.9451 313.758 97.6599 314.708 97.6599C314.899 97.6599 315.184 97.6599 315.469 97.7549C315.754 97.7549 316.04 97.85 316.325 98.0402C316.61 98.2304 316.895 98.4206 317.276 98.7059C317.561 98.9911 317.846 99.3715 318.131 99.9421L316.99 100.513C316.8 100.037 316.515 99.6568 316.04 99.3715C315.659 99.0862 315.184 98.8961 314.613 98.8961C314.043 98.8961 313.568 99.0862 313.282 99.3715C312.997 99.6568 312.807 100.132 312.807 100.608C312.807 101.083 312.997 101.464 313.282 101.654C313.568 101.844 313.948 102.034 314.423 102.224C314.518 102.224 314.613 102.224 314.708 102.319C314.804 102.319 314.899 102.414 314.994 102.414C315.089 102.414 315.184 102.51 315.279 102.51C315.374 102.51 315.469 102.605 315.564 102.605C316.325 102.89 316.99 103.175 317.656 103.651C318.321 104.126 318.607 104.887 318.607 105.933C318.607 106.123 318.607 106.218 318.607 106.408C318.607 106.599 318.512 106.694 318.512 106.884C318.321 107.454 317.941 108.025 317.371 108.5C316.8 108.976 315.944 109.261 314.708 109.261C314.518 109.261 314.233 109.261 313.853 109.166C313.472 109.071 313.187 108.976 312.807 108.786C312.427 108.595 312.141 108.31 311.761 108.025C311.381 107.549 311.096 107.074 310.905 106.503Z" fill="white"/>
<path fill-rule="evenodd" clip-rule="evenodd" d="M330.301 108.691V99.1815H328.59V97.9453H330.301V93.1907C330.301 93.0956 330.301 93.0956 330.301 93.0005C330.301 92.9054 330.301 92.9054 330.301 92.8103C330.396 92.1446 330.586 91.6692 330.872 91.0986C331.252 90.6232 331.822 90.3379 332.773 90.3379C332.963 90.3379 333.249 90.3379 333.344 90.3379C333.534 90.3379 333.629 90.433 333.819 90.433C333.914 90.433 334.009 90.433 334.104 90.5281C334.199 90.5281 334.199 90.5281 334.199 90.5281V91.7643C334.009 91.6692 333.914 91.5741 333.724 91.5741C333.629 91.5741 333.439 91.479 333.344 91.479C333.249 91.479 333.249 91.479 333.249 91.479H333.154C332.773 91.479 332.488 91.5741 332.298 91.7643C332.108 91.9545 332.013 92.2397 331.918 92.525C331.918 92.6201 331.822 92.8103 331.822 92.9054C331.822 93.0005 331.822 93.0956 331.822 93.1907V97.9453H334.199V99.0864H331.822V108.596H330.301V108.691ZM341.425 109.071C339.904 109.071 338.573 108.5 337.337 107.55C336.196 106.504 335.626 105.172 335.626 103.27C335.626 101.654 336.196 100.323 337.242 99.1815C338.288 98.0403 339.714 97.4698 341.425 97.4698C343.137 97.4698 344.563 98.0403 345.609 99.1815C346.655 100.323 347.225 101.654 347.225 103.27C347.225 104.887 346.655 106.218 345.609 107.359C344.563 108.5 343.137 109.071 341.425 109.071ZM341.425 107.93C342.756 107.93 343.802 107.454 344.563 106.504C345.324 105.553 345.704 104.507 345.704 103.365C345.704 102.224 345.324 101.178 344.563 100.227C343.802 99.2765 342.756 98.8011 341.425 98.8011C340.094 98.8011 339.048 99.2765 338.288 100.227C337.527 101.178 337.147 102.224 337.147 103.365C337.147 104.507 337.527 105.553 338.288 106.504C339.048 107.454 340.094 107.93 341.425 107.93ZM350.173 108.691V97.9453H351.694V100.227C351.979 99.6569 352.264 99.1815 352.645 98.8011C352.93 98.4207 353.215 98.2305 353.5 98.0403C353.69 97.9453 353.976 97.8502 354.166 97.7551C354.356 97.66 354.641 97.66 354.831 97.66C355.022 97.66 355.307 97.66 355.402 97.7551C355.592 97.7551 355.782 97.8502 355.877 97.8502C355.972 97.8502 355.972 97.8502 355.972 97.8502H356.067L355.592 99.1815C355.592 99.1815 355.592 99.1815 355.497 99.1815C355.402 99.0864 355.212 99.0864 355.117 98.9913C354.926 98.9913 354.736 98.8962 354.546 98.8962C353.881 98.8962 353.31 99.2765 352.74 100.037C352.169 100.798 351.884 101.559 351.694 102.415C351.694 102.51 351.694 102.605 351.694 102.7C351.694 102.795 351.694 102.89 351.694 102.985V108.5H350.173V108.691ZM367.096 108.691V99.1815H365.385V97.9453H367.096V93.1907C367.096 93.0956 367.096 93.0956 367.096 93.0005C367.096 92.9054 367.096 92.9054 367.096 92.8103C367.192 92.1446 367.382 91.6692 367.667 91.0986C368.047 90.6232 368.618 90.3379 369.569 90.3379C369.759 90.3379 370.044 90.3379 370.139 90.3379C370.329 90.3379 370.424 90.433 370.614 90.433C370.709 90.433 370.805 90.433 370.9 90.5281C370.995 90.5281 370.995 90.5281 370.995 90.5281V91.7643C370.805 91.6692 370.709 91.5741 370.519 91.5741C370.329 91.5741 370.234 91.479 370.139 91.479C370.044 91.479 370.044 91.479 370.044 91.479H369.949C369.569 91.479 369.283 91.5741 369.093 91.7643C368.903 91.9545 368.808 92.2397 368.713 92.525C368.713 92.6201 368.618 92.8103 368.618 92.9054C368.618 93.0005 368.618 93.0956 368.618 93.1907V97.9453H370.995V99.0864H368.618V108.596H367.096V108.691ZM373.181 97.9453H374.703V104.412C374.703 104.602 374.703 104.792 374.703 105.077C374.703 105.362 374.798 105.743 374.893 106.028C375.083 106.504 375.368 106.884 375.749 107.264C376.129 107.645 376.794 107.835 377.65 107.835C378.506 107.835 379.171 107.645 379.552 107.264C379.932 106.884 380.217 106.408 380.407 105.933C380.502 105.648 380.502 105.362 380.598 105.077C380.598 104.792 380.598 104.602 380.598 104.412V97.9453H382.119V104.221C382.119 105.743 381.834 106.884 381.168 107.55C380.598 108.215 379.932 108.691 379.171 108.881C378.886 108.976 378.601 108.976 378.316 109.071C378.03 109.071 377.84 109.071 377.555 109.071C377.365 109.071 377.08 109.071 376.794 109.071C376.509 109.071 376.224 108.976 376.034 108.881C375.273 108.691 374.608 108.31 374.037 107.55C373.467 106.884 373.086 105.743 373.086 104.221V97.9453H373.181ZM385.732 108.691V97.9453H387.253V100.227C387.538 99.6569 387.823 99.1815 388.204 98.8011C388.489 98.4207 388.774 98.2305 389.06 98.0403C389.25 97.9453 389.535 97.8502 389.725 97.7551C389.915 97.66 390.2 97.66 390.391 97.66C390.581 97.66 390.866 97.66 390.961 97.7551C391.151 97.7551 391.341 97.8502 391.436 97.8502C391.532 97.8502 391.532 97.8502 391.532 97.8502H391.627L391.151 99.1815C391.151 99.1815 391.151 99.1815 391.056 99.1815C390.961 99.0864 390.771 99.0864 390.676 98.9913C390.486 98.9913 390.296 98.8962 390.105 98.8962C389.44 98.8962 388.869 99.2765 388.299 100.037C387.728 100.798 387.443 101.559 387.253 102.415C387.253 102.51 387.253 102.605 387.253 102.7C387.253 102.795 387.253 102.89 387.253 102.985V108.5H385.732V108.691ZM393.718 108.691V97.9453H395.24V99.752C395.335 99.6569 395.43 99.4667 395.525 99.3716C395.62 99.1814 395.715 98.9913 395.905 98.8962C396.19 98.6109 396.571 98.3256 397.046 98.0403C397.521 97.7551 398.092 97.66 398.853 97.66C399.993 97.66 400.944 98.0403 401.61 98.8011C402.275 99.5618 402.561 100.608 402.561 101.939V108.786H401.039V102.129C401.039 101.939 401.039 101.844 401.039 101.654C401.039 101.464 401.039 101.369 401.039 101.178C400.944 100.608 400.754 100.037 400.469 99.5618C400.184 99.0864 399.518 98.8011 398.662 98.8011C397.617 98.8011 396.856 99.1814 396.285 99.9422C395.715 100.703 395.43 101.559 395.335 102.51C395.335 102.605 395.335 102.7 395.335 102.795C395.335 102.89 395.335 102.985 395.335 103.08V108.596H393.718V108.691ZM406.174 97.9453H407.695V108.596H406.174V97.9453ZM405.698 94.3318C405.698 94.0465 405.793 93.7612 405.983 93.571C406.174 93.3808 406.459 93.2857 406.839 93.2857C407.124 93.2857 407.41 93.3808 407.695 93.571C407.885 93.7612 407.98 94.0465 407.98 94.4269C407.98 94.8072 407.885 94.9974 407.6 95.2827C407.41 95.4729 407.124 95.568 406.839 95.568C406.554 95.568 406.269 95.4729 406.079 95.2827C405.888 94.9974 405.698 94.7121 405.698 94.3318ZM411.593 108.691V99.1815H409.882V97.9453H411.593V93.8563H413.114V97.9453H415.206V99.0864H413.114V108.596H411.593V108.691ZM417.393 97.9453H418.914V104.412C418.914 104.602 418.914 104.792 418.914 105.077C418.914 105.362 419.009 105.743 419.104 106.028C419.199 106.504 419.485 106.884 419.96 107.264C420.34 107.645 421.006 107.835 421.861 107.835C422.717 107.835 423.383 107.645 423.763 107.264C424.143 106.884 424.429 106.408 424.619 105.933C424.714 105.648 424.714 105.362 424.809 105.077C424.809 104.792 424.809 104.602 424.809 104.412V97.9453H426.235V104.221C426.235 105.743 425.95 106.884 425.284 107.55C424.714 108.215 424.048 108.691 423.288 108.881C423.002 108.976 422.717 108.976 422.432 109.071C422.147 109.071 421.957 109.071 421.671 109.071C421.481 109.071 421.196 109.071 420.911 109.071C420.625 109.071 420.34 108.976 420.15 108.881C419.389 108.691 418.724 108.31 418.153 107.55C417.583 106.884 417.203 105.743 417.203 104.221V97.9453H417.393ZM429.943 108.691V97.9453H431.369V100.227C431.655 99.6569 431.94 99.1815 432.32 98.8011C432.605 98.4207 432.891 98.2305 433.176 98.0403C433.366 97.9453 433.651 97.8502 433.841 97.7551C434.031 97.66 434.317 97.66 434.507 97.66C434.697 97.66 434.982 97.66 435.077 97.7551C435.267 97.7551 435.458 97.8502 435.553 97.8502H435.648H435.743L435.267 99.1815C435.267 99.1815 435.267 99.1815 435.172 99.1815C435.172 99.1815 435.172 99.1815 435.077 99.1815C434.982 99.0864 434.792 99.0864 434.697 98.9913C434.507 98.9913 434.317 98.8962 434.127 98.8962C433.461 98.8962 432.891 99.2765 432.32 100.037C431.75 100.798 431.464 101.559 431.274 102.415C431.274 102.51 431.274 102.605 431.274 102.7C431.274 102.795 431.274 102.89 431.274 102.985V108.5H429.943V108.691ZM446.487 105.267L447.628 105.838C447.247 106.694 446.582 107.454 445.821 108.12C445.061 108.786 444.015 109.071 442.684 109.071C440.972 109.071 439.641 108.5 438.595 107.359C437.644 106.218 437.169 104.887 437.169 103.365C437.169 103.08 437.169 102.795 437.264 102.51C437.264 102.224 437.359 101.939 437.454 101.654C437.74 100.608 438.31 99.752 439.071 98.8962C439.926 98.0403 441.067 97.66 442.684 97.66C444.11 97.66 445.156 98.0403 445.916 98.8011C446.677 99.5618 447.152 100.513 447.437 101.464C447.533 101.654 447.533 101.939 447.533 102.129C447.533 102.319 447.533 102.605 447.533 102.795V103.461H438.69C438.69 103.651 438.69 103.746 438.69 103.936C438.69 104.126 438.69 104.221 438.785 104.412C438.976 105.267 439.356 106.028 440.021 106.789C440.687 107.55 441.543 107.835 442.684 107.835C442.969 107.835 443.254 107.835 443.634 107.74C444.015 107.645 444.395 107.454 444.775 107.264C445.061 107.074 445.346 106.789 445.631 106.504C446.011 106.218 446.297 105.838 446.487 105.267ZM438.976 102.224H446.201C446.201 101.369 445.821 100.513 445.251 99.752C444.68 98.9913 443.825 98.706 442.779 98.706C441.733 98.706 440.877 99.0864 440.212 99.752C439.546 100.418 439.071 101.273 438.976 102.224ZM459.227 97.9453H460.653V108.596H459.227V97.9453ZM458.847 94.3318C458.847 94.0465 458.942 93.7612 459.132 93.571C459.322 93.3808 459.607 93.2857 459.988 93.2857C460.273 93.2857 460.558 93.3808 460.844 93.571C461.034 93.7612 461.129 94.0465 461.129 94.4269C461.129 94.8072 461.034 94.9974 460.748 95.2827C460.558 95.4729 460.273 95.568 459.988 95.568C459.703 95.568 459.417 95.4729 459.227 95.2827C458.942 94.9974 458.847 94.7121 458.847 94.3318ZM464.361 108.691V97.9453H465.788V99.752C465.883 99.6569 465.978 99.4667 466.073 99.3716C466.168 99.1814 466.263 98.9913 466.453 98.8962C466.738 98.6109 467.119 98.3256 467.594 98.0403C468.069 97.7551 468.64 97.66 469.401 97.66C470.541 97.66 471.492 98.0403 472.158 98.8011C472.823 99.5618 473.109 100.608 473.109 101.939V108.786H471.682V102.129C471.682 101.939 471.682 101.844 471.682 101.654C471.682 101.464 471.682 101.369 471.682 101.178C471.587 100.608 471.397 100.037 471.112 99.5618C470.827 99.0864 470.161 98.8011 469.305 98.8011C468.26 98.8011 467.499 99.1814 466.928 99.9422C466.358 100.703 466.073 101.559 465.978 102.51C465.978 102.605 465.978 102.7 465.978 102.795C465.978 102.89 465.978 102.985 465.978 103.08V108.596H464.361V108.691ZM486.895 108.691H485.564V106.884C485.088 107.645 484.613 108.215 483.852 108.596C483.092 108.976 482.426 109.166 481.666 109.166C480.239 109.166 478.908 108.691 477.767 107.74C476.626 106.789 476.056 105.362 476.056 103.461C476.056 101.844 476.531 100.513 477.577 99.3716C478.623 98.2305 479.954 97.66 481.666 97.66C481.951 97.66 482.236 97.66 482.616 97.7551C482.997 97.8502 483.377 97.9452 483.757 98.1354C484.043 98.3256 484.328 98.5158 484.708 98.8011C484.993 99.0864 485.279 99.4667 485.564 99.8471V90.7183H487.085V108.691H486.895ZM481.666 107.93C482.807 107.93 483.757 107.55 484.423 106.694C485.183 105.838 485.564 104.792 485.564 103.27C485.564 102.034 485.183 100.988 484.518 100.037C483.852 99.0864 482.902 98.6109 481.666 98.6109C480.43 98.6109 479.479 99.0864 478.718 99.9422C477.958 100.798 477.577 101.939 477.577 103.175C477.577 104.412 477.958 105.458 478.623 106.408C479.384 107.454 480.335 107.93 481.666 107.93ZM490.603 97.9453H492.124V104.412C492.124 104.602 492.124 104.792 492.124 105.077C492.124 105.362 492.219 105.743 492.314 106.028C492.504 106.504 492.79 106.884 493.17 107.264C493.55 107.645 494.216 107.835 495.072 107.835C495.927 107.835 496.593 107.645 496.973 107.264C497.353 106.884 497.639 106.408 497.829 105.933C497.924 105.648 497.924 105.362 498.019 105.077C498.019 104.792 498.019 104.602 498.019 104.412V97.9453H499.445V104.221C499.445 105.743 499.16 106.884 498.494 107.55C497.924 108.215 497.258 108.691 496.498 108.881C496.213 108.976 495.927 108.976 495.642 109.071C495.357 109.071 495.167 109.071 494.881 109.071C494.691 109.071 494.406 109.071 494.121 109.071C493.836 109.071 493.55 108.976 493.36 108.881C492.6 108.691 491.934 108.31 491.364 107.55C490.793 106.884 490.413 105.743 490.413 104.221V97.9453H490.603ZM502.107 106.504L503.343 105.838C503.534 106.408 503.819 106.884 504.294 107.264C504.77 107.74 505.34 107.93 506.006 107.93C506.671 107.93 507.242 107.74 507.622 107.359C508.002 106.979 508.192 106.504 508.192 105.838C508.192 105.267 508.002 104.792 507.717 104.507C507.337 104.221 506.956 104.031 506.576 103.841C506.386 103.841 506.291 103.746 506.101 103.651C505.911 103.651 505.815 103.556 505.72 103.556C505.72 103.556 505.72 103.556 505.625 103.556H505.53C504.77 103.365 504.104 102.985 503.534 102.605C502.963 102.224 502.583 101.559 502.583 100.608C502.583 99.6569 502.963 98.8962 503.629 98.4207C504.294 97.9453 505.055 97.66 506.006 97.66C506.196 97.66 506.481 97.66 506.766 97.7551C507.051 97.7551 507.337 97.8502 507.622 98.0403C507.907 98.2305 508.192 98.4207 508.573 98.706C508.858 98.9913 509.143 99.3716 509.428 99.9422L508.287 100.513C508.097 100.037 507.812 99.6569 507.337 99.3716C506.956 99.0864 506.481 98.8962 505.91 98.8962C505.34 98.8962 504.865 99.0864 504.579 99.3716C504.294 99.6569 504.104 100.132 504.104 100.608C504.104 101.083 504.294 101.464 504.579 101.654C504.865 101.844 505.245 102.034 505.72 102.224C505.815 102.224 505.911 102.224 506.006 102.319C506.101 102.319 506.196 102.415 506.291 102.415C506.386 102.415 506.481 102.51 506.576 102.51C506.671 102.51 506.766 102.605 506.861 102.605C507.622 102.89 508.287 103.175 508.953 103.651C509.619 104.126 509.904 104.887 509.904 105.933C509.904 106.123 509.904 106.218 509.904 106.408C509.904 106.599 509.809 106.694 509.809 106.884C509.619 107.454 509.238 108.025 508.668 108.5C508.097 108.976 507.242 109.261 506.006 109.261C505.815 109.261 505.53 109.261 505.15 109.166C504.77 109.071 504.484 108.976 504.104 108.786C503.724 108.596 503.438 108.31 503.058 108.025C502.583 107.55 502.298 107.074 502.107 106.504ZM512.851 108.691V99.1815H511.14V97.9453H512.851V93.8563H514.372V97.9453H516.464V99.0864H514.372V108.596H512.851V108.691ZM518.651 108.691V97.9453H520.077V100.227C520.362 99.6569 520.648 99.1815 521.028 98.8011C521.313 98.4207 521.598 98.2305 521.884 98.0403C522.074 97.9453 522.359 97.8502 522.549 97.7551C522.739 97.66 523.025 97.66 523.215 97.66C523.405 97.66 523.69 97.66 523.785 97.7551C523.975 97.7551 524.166 97.8502 524.261 97.8502H524.356H524.451L523.975 99.1815C523.975 99.1815 523.975 99.1815 523.88 99.1815C523.88 99.1815 523.88 99.1815 523.785 99.1815C523.69 99.0864 523.5 99.0864 523.405 98.9913C523.215 98.9913 523.025 98.8962 522.834 98.8962C522.169 98.8962 521.598 99.2765 521.028 100.037C520.457 100.798 520.172 101.559 519.982 102.415C519.982 102.51 519.982 102.605 519.982 102.7C519.982 102.795 519.982 102.89 519.982 102.985V108.5H518.651V108.691ZM529.49 97.9453H530.916V108.596H529.49V97.9453ZM529.11 94.3318C529.11 94.0465 529.205 93.7612 529.395 93.571C529.585 93.3808 529.87 93.2857 530.251 93.2857C530.536 93.2857 530.821 93.3808 531.106 93.571C531.296 93.7612 531.391 94.0465 531.391 94.4269C531.391 94.8072 531.296 94.9974 531.011 95.2827C530.821 95.4729 530.536 95.568 530.251 95.568C529.965 95.568 529.68 95.4729 529.49 95.2827C529.205 94.9974 529.11 94.7121 529.11 94.3318ZM543.181 105.267L544.322 105.838C543.847 106.694 543.276 107.454 542.516 108.12C541.755 108.786 540.709 109.071 539.378 109.071C537.667 109.071 536.335 108.5 535.385 107.359C534.434 106.218 533.959 104.887 533.959 103.365C533.959 103.08 533.959 102.795 534.054 102.51C534.054 102.224 534.149 101.939 534.244 101.654C534.529 100.608 535.099 99.752 535.86 98.8962C536.716 98.0403 537.857 97.66 539.473 97.66C540.899 97.66 541.945 98.0403 542.706 98.8011C543.466 99.5618 543.942 100.513 544.227 101.464C544.322 101.654 544.322 101.939 544.322 102.129C544.322 102.319 544.322 102.605 544.322 102.795V103.461H535.48C535.48 103.651 535.48 103.746 535.48 103.936C535.48 104.126 535.48 104.221 535.575 104.412C535.765 105.267 536.145 106.028 536.811 106.789C537.476 107.55 538.332 107.835 539.473 107.835C539.758 107.835 540.044 107.835 540.424 107.74C540.804 107.645 541.184 107.454 541.565 107.264C541.85 107.074 542.135 106.789 542.421 106.504C542.706 106.218 542.896 105.838 543.181 105.267ZM535.575 102.224H542.801C542.801 101.369 542.421 100.513 541.85 99.752C541.28 98.9913 540.424 98.706 539.378 98.706C538.332 98.706 537.476 99.0864 536.811 99.752C536.145 100.418 535.765 101.273 535.575 102.224ZM546.224 106.504L547.46 105.838C547.65 106.408 547.935 106.884 548.41 107.264C548.886 107.74 549.456 107.93 550.122 107.93C550.787 107.93 551.358 107.74 551.738 107.359C552.118 106.979 552.309 106.504 552.309 105.838C552.309 105.267 552.118 104.792 551.833 104.507C551.453 104.221 551.073 104.031 550.692 103.841C550.502 103.841 550.407 103.746 550.217 103.651C550.027 103.651 549.932 103.556 549.837 103.556C549.837 103.556 549.837 103.556 549.742 103.556H549.646C548.886 103.365 548.22 102.985 547.65 102.605C547.079 102.224 546.699 101.559 546.699 100.608C546.699 99.6569 546.984 98.8962 547.65 98.4207C548.315 97.9453 549.076 97.66 550.027 97.66C550.217 97.66 550.502 97.66 550.787 97.7551C551.073 97.7551 551.358 97.8502 551.643 98.0403C551.928 98.2305 552.214 98.4207 552.594 98.706C552.879 98.9913 553.164 99.3716 553.45 99.9422L552.309 100.513C552.118 100.037 551.833 99.6569 551.358 99.3716C550.978 99.0864 550.502 98.8962 549.932 98.8962C549.361 98.8962 548.886 99.0864 548.601 99.3716C548.315 99.6569 548.125 100.132 548.125 100.608C548.125 101.083 548.315 101.464 548.601 101.654C548.886 101.844 549.266 102.034 549.742 102.224C549.837 102.224 549.932 102.224 550.027 102.319C550.122 102.319 550.217 102.415 550.312 102.415C550.407 102.415 550.502 102.51 550.597 102.51C550.692 102.51 550.787 102.605 550.882 102.605C551.643 102.89 552.309 103.175 552.974 103.651C553.64 104.126 553.925 104.887 553.925 105.933C553.925 106.123 553.925 106.218 553.925 106.408C553.925 106.599 553.83 106.694 553.83 106.884C553.64 107.454 553.259 108.025 552.689 108.5C552.118 108.976 551.263 109.261 550.027 109.261C549.837 109.261 549.551 109.261 549.171 109.166C548.791 109.071 548.506 108.976 548.125 108.786C547.745 108.596 547.46 108.31 547.079 108.025C546.699 107.55 546.414 107.074 546.224 106.504Z" fill="white"/>
<path fill-rule="evenodd" clip-rule="evenodd" d="M495.357 5.03979L560.201 4.84961V11.6011L532.818 11.8864V66.2791H524.927V11.8864H495.357V5.03979Z" fill="#C1002B"/>
</svg>
