<svg width="366" height="124" viewBox="0 0 366 124" fill="none" xmlns="http://www.w3.org/2000/svg">
<path fill-rule="evenodd" clip-rule="evenodd" d="M105.648 107.149L53.0351 122.573V91.3692L105.648 107.149ZM0.482137 15.4419L53.1513 31.2354V0L0.482137 15.4419ZM0 47.7557V70.7914L106.134 102.611V79.5798L0 47.7557ZM106.131 74.8348L0 43.0123V19.9766L106.131 51.8006V74.8348ZM119.826 87.8454L133.301 85.8347C133.874 88.3853 135.031 90.3316 136.792 91.6501C138.538 92.9733 140.983 93.6436 144.148 93.6436C147.623 93.6436 150.235 93.0204 151.978 91.7647C153.173 90.903 153.759 89.7242 153.759 88.2723C153.759 87.2693 153.433 86.4421 152.797 85.786C152.126 85.166 150.628 84.5915 148.311 84.0673C137.477 81.7411 130.61 79.6049 127.705 77.6789C123.691 75.0027 121.684 71.2702 121.684 66.5064C121.684 62.2213 123.414 58.6033 126.89 55.6886C130.364 52.7549 135.749 51.2889 143.041 51.2889C149.989 51.2889 155.16 52.4065 158.538 54.6055C161.915 56.8203 164.233 60.0866 165.503 64.4188L152.845 66.6979C152.305 64.772 151.279 63.2871 149.759 62.2684C148.244 61.2325 146.089 60.7223 143.286 60.7223C139.746 60.7223 137.214 61.2011 135.683 62.1727C134.672 62.857 134.166 63.7501 134.166 64.8332C134.166 65.7765 134.606 66.555 135.504 67.2096C136.712 68.0854 140.888 69.3113 148.049 70.9045C155.193 72.4804 160.184 74.4251 163.025 76.7372C165.83 79.0806 167.234 82.3297 167.234 86.4892C167.234 91.0301 165.293 94.951 161.395 98.219C157.511 101.484 151.769 103.111 144.148 103.111C137.232 103.111 131.768 101.74 127.721 99.0007C123.691 96.2727 121.065 92.5432 119.826 87.8454ZM171.925 101.992H185.353V33.5522H171.925V101.992ZM188.93 76.5002C188.93 82.201 190.039 87.0307 192.227 90.9987C194.432 94.9683 197.642 97.9757 201.866 100.038C206.095 102.09 210.513 103.111 215.182 103.111C222.7 103.111 228.932 100.655 233.891 95.7139C238.837 90.7759 241.315 84.5586 241.315 77.0699C241.315 69.6315 238.867 63.4817 233.959 58.6033C229.045 53.7265 222.75 51.2889 215.083 51.2889C210.106 51.2889 205.602 52.3704 201.574 54.5239C197.546 56.6586 194.432 59.7853 192.227 63.8459C190.039 67.9253 188.93 72.146 188.93 76.5002ZM202.703 77.1986C202.703 82.1241 203.891 85.8833 206.287 88.4952C208.671 91.1086 211.624 92.4161 215.132 92.4161C218.642 92.4161 221.574 91.1086 223.942 88.4952C226.323 85.8833 227.515 82.0911 227.515 77.1029C227.515 72.2606 226.323 68.5139 223.942 65.9021C221.574 63.2871 218.642 61.9827 215.132 61.9827C211.624 61.9827 208.671 63.2871 206.287 65.9021C203.891 68.5139 202.703 72.292 202.703 77.1986ZM268.03 52.4222V62.8743H258.864V82.8524C258.864 86.9052 258.94 89.2612 259.121 89.9298C259.302 90.6016 259.694 91.1416 260.315 91.5873C260.93 92.019 261.703 92.245 262.582 92.245C263.837 92.245 265.628 91.8118 267.997 90.983L269.138 101.151C266.008 102.455 262.482 103.111 258.515 103.111C256.104 103.111 253.918 102.708 251.974 101.93C250.034 101.132 248.615 100.098 247.699 98.8359C246.788 97.5802 246.169 95.8724 245.81 93.7205C245.533 92.2105 245.384 89.1183 245.384 84.4801V62.8743H239.22V52.4222H245.384V42.5587L258.864 34.9084V52.4222H268.03ZM302.066 86.2192C301.348 88.7055 300.253 90.5043 298.816 91.636C297.384 92.7504 295.621 93.3108 293.518 93.3108C290.432 93.3108 287.842 92.2262 285.767 90.0617C283.696 87.9066 282.62 84.8804 282.523 80.9924H316.177C316.357 70.9359 314.268 63.4817 309.91 58.6033C305.541 53.7265 299.584 51.2889 292.035 51.2889C285.312 51.2889 279.746 53.6135 275.358 58.2674C270.955 62.9214 268.751 69.3584 268.751 77.5832C268.751 84.4487 270.435 90.1558 273.775 94.6654C278.02 100.305 284.544 103.111 293.37 103.111C298.95 103.111 303.599 101.868 307.302 99.3476C311.019 96.8471 313.73 93.1962 315.459 88.4026L302.066 86.2192ZM302.834 72.9622C302.733 69.1496 301.738 66.2662 299.829 64.2932C297.923 62.3155 295.589 61.3282 292.849 61.3282C289.913 61.3282 287.5 62.3799 285.588 64.4674C283.68 66.5378 282.735 69.3757 282.766 72.9622H302.834ZM311.195 101.992L329.499 76.4515L311.96 52.4222H328.359L337.348 66.0449L346.81 52.4222H362.584L345.373 75.8943L364.15 101.992H347.674L337.348 86.6336L326.922 101.992H311.195Z" fill="#707277"/>
</svg>
