<svg width="127" height="127" viewBox="0 0 127 127" fill="none" xmlns="http://www.w3.org/2000/svg">
<path d="M70.2026 117.367C78.2168 118.567 85.5687 110.955 89.1892 104.061" stroke="white" stroke-width="4" stroke-miterlimit="10" stroke-linecap="round" stroke-linejoin="round"/>
<path d="M106.999 50.208C93.3592 64.5065 80.3814 64.2989 75.1034 77.8616C71.1536 88.0105 76.1653 99.4474 86.2977 103.406C96.4302 107.365 107.845 102.344 111.796 92.1934C119.082 73.4766 106.999 50.208 106.999 50.208Z" stroke="white" stroke-width="4" stroke-miterlimit="10" stroke-linecap="round" stroke-linejoin="round"/>
<path d="M22.963 40.0391C17.0264 45.5638 18.3954 56.3336 21.5145 63.4689" stroke="white" stroke-width="4" stroke-miterlimit="10" stroke-linecap="round" stroke-linejoin="round"/>
<path d="M52.4077 110.742C49.7604 91.1428 58.0169 81.1088 50.7298 68.5173C45.2723 59.0931 33.2251 55.8831 23.8178 61.3486C14.4087 66.8141 11.2045 78.8848 16.6601 88.3109C26.7205 105.686 52.4077 110.742 52.4077 110.742Z" stroke="white" stroke-width="4" stroke-miterlimit="10" stroke-linecap="round" stroke-linejoin="round"/>
<path d="M104.52 39.6757C102.726 31.7619 92.9337 27.3158 85.21 26.4336" stroke="white" stroke-width="4" stroke-miterlimit="10" stroke-linecap="round" stroke-linejoin="round"/>
<path d="M28.6963 29.7269C46.9484 37.2644 51.4679 49.4538 65.9978 49.4538C76.874 49.4538 85.6892 40.6226 85.6892 29.725C85.6892 18.8311 76.874 10 65.996 10C45.9457 10 28.6963 29.7269 28.6963 29.7269Z" stroke="white" stroke-width="4" stroke-miterlimit="10" stroke-linecap="round" stroke-linejoin="round"/>
</svg>
