<svg width="127" height="127" viewBox="0 0 127 127" fill="none" xmlns="http://www.w3.org/2000/svg">
<path d="M29.8318 75.4529H28.1414V73.7631C28.1414 72.8337 27.3808 72.0732 26.4511 72.0732C25.5214 72.0732 24.7607 72.8337 24.7607 73.7631V77.1427C24.7607 78.0721 25.5214 78.8325 26.4511 78.8325H29.8318C30.7615 78.8325 31.5221 78.0721 31.5221 77.1427C31.5221 76.2133 30.7615 75.4529 29.8318 75.4529Z" fill="white"/>
<path d="M26.4511 56.6279C27.3808 56.6279 28.1414 55.8675 28.1414 54.9381V48.6688C28.1414 47.7394 27.3808 46.979 26.4511 46.979C25.5214 46.979 24.7607 47.7394 24.7607 48.6688V54.9381C24.7607 55.8675 25.5214 56.6279 26.4511 56.6279Z" fill="white"/>
<path d="M26.4511 69.1835C27.3808 69.1835 28.1414 68.4231 28.1414 67.4937V61.2245C28.1414 60.2951 27.3808 59.5347 26.4511 59.5347C25.5214 59.5347 24.7607 60.2951 24.7607 61.2245V67.4937C24.7607 68.4231 25.5214 69.1835 26.4511 69.1835Z" fill="white"/>
<path d="M26.4511 44.0727C27.3808 44.0727 28.1414 43.3123 28.1414 42.3829V36.1136C28.1414 35.1842 27.3808 34.4238 26.4511 34.4238C25.5214 34.4238 24.7607 35.1842 24.7607 36.1136V42.3829C24.7607 43.3123 25.5214 44.0727 26.4511 44.0727Z" fill="white"/>
<path d="M29.8318 24.7573H26.4511C25.5214 24.7573 24.7607 25.5177 24.7607 26.4471V29.8268C24.7607 30.7562 25.5214 31.5166 26.4511 31.5166C27.3808 31.5166 28.1414 30.7562 28.1414 29.8268V28.137H29.8318C30.7615 28.137 31.5221 27.3765 31.5221 26.4471C31.5221 25.5177 30.7615 24.7573 29.8318 24.7573Z" fill="white"/>
<path d="M61.2221 28.1384H67.4933C68.423 28.1384 69.1836 27.378 69.1836 26.4486C69.1836 25.5192 68.423 24.7588 67.4933 24.7588H61.2221C60.2924 24.7588 59.5317 25.5192 59.5317 26.4486C59.5317 27.378 60.2924 28.1384 61.2221 28.1384Z" fill="white"/>
<path d="M36.1029 28.1384H42.3741C43.3038 28.1384 44.0645 27.378 44.0645 26.4486C44.0645 25.5192 43.3038 24.7588 42.3741 24.7588H36.1029C35.1732 24.7588 34.4126 25.5192 34.4126 26.4486C34.4126 27.378 35.1732 28.1384 36.1029 28.1384Z" fill="white"/>
<path d="M48.662 28.1384H54.9332C55.8629 28.1384 56.6236 27.378 56.6236 26.4486C56.6236 25.5192 55.8629 24.7588 54.9332 24.7588H48.662C47.7323 24.7588 46.9717 25.5192 46.9717 26.4486C46.9717 27.378 47.7323 28.1384 48.662 28.1384Z" fill="white"/>
<path d="M73.7807 28.1384H75.471V29.8282C75.471 30.7576 76.2317 31.518 77.1614 31.518C78.091 31.518 78.8517 30.7576 78.8517 29.8282V26.4486C78.8517 25.5192 78.091 24.7588 77.1614 24.7588H73.7807C72.851 24.7588 72.0903 25.5192 72.0903 26.4486C72.0903 27.378 72.851 28.1384 73.7807 28.1384Z" fill="white"/>
<path d="M77.1615 34.4062C76.2318 34.4062 75.4712 35.1667 75.4712 36.0961V42.3653C75.4712 43.2947 76.2318 44.0551 77.1615 44.0551C78.0912 44.0551 78.8519 43.2947 78.8519 42.3653V36.0961C78.8519 35.1667 78.0912 34.4062 77.1615 34.4062Z" fill="white"/>
<path d="M77.1615 46.9624C76.2318 46.9624 75.4712 47.7228 75.4712 48.6522V54.9215C75.4712 55.8509 76.2318 56.6113 77.1615 56.6113C78.0912 56.6113 78.8519 55.8509 78.8519 54.9215V48.6522C78.8519 47.7228 78.0912 46.9624 77.1615 46.9624Z" fill="white"/>
<path d="M77.1615 59.5176C76.2318 59.5176 75.4712 60.278 75.4712 61.2074V67.4766C75.4712 68.406 76.2318 69.1664 77.1615 69.1664C78.0912 69.1664 78.8519 68.406 78.8519 67.4766V61.2074C78.8519 60.278 78.0912 59.5176 77.1615 59.5176Z" fill="white"/>
<path d="M73.7807 78.832H77.1614C78.091 78.832 78.8517 78.0716 78.8517 77.1422V73.7626C78.8517 72.8332 78.091 72.0728 77.1614 72.0728C76.2317 72.0728 75.471 72.8332 75.471 73.7626V75.4524H73.7807C72.851 75.4524 72.0903 76.2128 72.0903 77.1422C72.0903 78.0716 72.851 78.832 73.7807 78.832Z" fill="white"/>
<path d="M67.5094 75.4531H61.2382C60.3085 75.4531 59.5479 76.2135 59.5479 77.1429C59.5479 78.0723 60.3085 78.8328 61.2382 78.8328H67.5094C68.4391 78.8328 69.1997 78.0723 69.1997 77.1429C69.1997 76.2135 68.4391 75.4531 67.5094 75.4531Z" fill="white"/>
<path d="M54.9508 75.4531H48.6796C47.7499 75.4531 46.9893 76.2135 46.9893 77.1429C46.9893 78.0723 47.7499 78.8328 48.6796 78.8328H54.9508C55.8805 78.8328 56.6411 78.0723 56.6411 77.1429C56.6411 76.2135 55.8805 75.4531 54.9508 75.4531Z" fill="white"/>
<path d="M44.0816 77.1425C44.0816 76.213 43.3209 75.4526 42.3912 75.4526H36.12C35.1903 75.4526 34.4297 76.213 34.4297 77.1425C34.4297 78.0719 35.1903 78.8323 36.12 78.8323H42.3912C43.3209 78.8323 44.0816 78.0719 44.0816 77.1425Z" fill="white"/>
<path d="M107.588 41.6569H85.6136V19.6898C85.6136 18.7604 84.853 18 83.9233 18H19.6903C18.7606 18 18 18.7604 18 19.6898V83.9028C18 84.8322 18.7606 85.5926 19.6903 85.5926H41.6642V107.56C41.6642 108.489 42.4249 109.249 43.3546 109.249H107.588C108.517 109.249 109.278 108.489 109.278 107.56V43.3467C109.278 42.4173 108.517 41.6569 107.588 41.6569ZM21.3796 21.3791H82.2319V82.2124H21.3796V21.3791ZM105.897 105.87H45.0444V85.5921H48.4251V91.1515C48.4251 92.0809 49.1857 92.8413 50.1154 92.8413C51.0451 92.8413 51.8057 92.0809 51.8057 91.1515V85.5921H83.9228C84.8524 85.5921 85.6131 84.8316 85.6131 83.9022V51.7952H90.6841C91.6138 51.7952 92.3744 51.0348 92.3744 50.1054C92.3744 49.176 91.6138 48.4156 90.6841 48.4156H85.6131V45.036H105.897L105.897 105.87Z" fill="white"/>
<path d="M53.4968 99.1096H51.8065V97.4198C51.8065 96.4904 51.0458 95.73 50.1161 95.73C49.1864 95.73 48.4258 96.4904 48.4258 97.4198V100.799C48.4258 101.729 49.1864 102.489 50.1161 102.489H53.4968C54.4265 102.489 55.1871 101.729 55.1871 100.799C55.1871 99.87 54.4265 99.1096 53.4968 99.1096Z" fill="white"/>
<path d="M97.4457 51.7947H99.1361V53.4845C99.1361 54.4139 99.8967 55.1743 100.826 55.1743C101.756 55.1743 102.517 54.4139 102.517 53.4845V50.1049C102.517 49.1755 101.756 48.415 100.826 48.415H97.4457C96.516 48.415 95.7554 49.1755 95.7554 50.1049C95.7554 51.0343 96.516 51.7947 97.4457 51.7947Z" fill="white"/>
<path d="M100.826 58.064C99.8964 58.064 99.1357 58.8244 99.1357 59.7538V66.023C99.1357 66.9524 99.8964 67.7128 100.826 67.7128C101.756 67.7128 102.516 66.9524 102.516 66.023V59.7538C102.516 58.8244 101.756 58.064 100.826 58.064Z" fill="white"/>
<path d="M100.826 83.1748C99.8964 83.1748 99.1357 83.9352 99.1357 84.8646V91.1339C99.1357 92.0633 99.8964 92.8237 100.826 92.8237C101.756 92.8237 102.516 92.0633 102.516 91.1339V84.8646C102.516 83.9352 101.756 83.1748 100.826 83.1748Z" fill="white"/>
<path d="M100.826 70.6196C99.8964 70.6196 99.1357 71.38 99.1357 72.3094V78.5787C99.1357 79.5081 99.8964 80.2685 100.826 80.2685C101.756 80.2685 102.516 79.5081 102.516 78.5787V72.3094C102.516 71.38 101.756 70.6196 100.826 70.6196Z" fill="white"/>
<path d="M97.4457 102.49H100.826C101.756 102.49 102.517 101.73 102.517 100.8V97.4208C102.517 96.4914 101.756 95.731 100.826 95.731C99.8967 95.731 99.1361 96.4914 99.1361 97.4208V99.1106H97.4457C96.516 99.1106 95.7554 99.871 95.7554 100.8C95.7554 101.73 96.516 102.49 97.4457 102.49Z" fill="white"/>
<path d="M91.1744 99.1089H84.9032C83.9735 99.1089 83.2129 99.8693 83.2129 100.799C83.2129 101.728 83.9735 102.489 84.9032 102.489H91.1744C92.1041 102.489 92.8648 101.728 92.8648 100.799C92.8648 99.8693 92.1041 99.1089 91.1744 99.1089Z" fill="white"/>
<path d="M66.0553 99.1089H59.7841C58.8544 99.1089 58.0938 99.8693 58.0938 100.799C58.0938 101.728 58.8544 102.489 59.7841 102.489H66.0553C66.985 102.489 67.7456 101.728 67.7456 100.799C67.7456 99.8693 66.985 99.1089 66.0553 99.1089Z" fill="white"/>
<path d="M78.6153 99.1089H72.3441C71.4145 99.1089 70.6538 99.8693 70.6538 100.799C70.6538 101.728 71.4145 102.489 72.3441 102.489H78.6153C79.545 102.489 80.3057 101.728 80.3057 100.799C80.3057 99.8693 79.545 99.1089 78.6153 99.1089Z" fill="white"/>
</svg>
