<svg width="127" height="127" viewBox="0 0 127 127" fill="none" xmlns="http://www.w3.org/2000/svg">
<path d="M107.06 73.3432H23.4653V68.629H24.4781C25.5738 68.629 26.4577 67.745 26.4577 66.6493C26.4577 65.5536 25.5738 64.6697 24.4781 64.6697H23.4653V59.9554C23.4653 56.4197 25.7856 53.4272 28.534 53.4272C31.2778 53.4272 33.6027 56.4197 33.6027 59.9554C33.6027 61.0511 34.4866 61.935 35.5823 61.935C36.678 61.935 37.5619 61.0511 37.5619 59.9554C37.5619 54.1684 33.5199 49.468 28.534 49.468C23.5619 49.468 19.5061 54.1685 19.5061 59.9554V73.3663C16.4262 73.6011 14 76.1563 14 79.2822V107.061C14 110.334 16.6655 113 19.9388 113H107.06C110.337 113 112.998 110.334 112.998 107.061V79.2822C112.998 76.0043 110.333 73.3432 107.06 73.3432ZM109.039 79.2822V87.2237H85.4543V77.2979H107.055C108.155 77.3025 109.039 78.1957 109.039 79.2822ZM45.5038 77.3025H81.4862V109.041H45.5038V77.3025ZM19.9399 77.3025H41.5404V87.2283L17.9599 87.2237V79.2822C17.9599 78.1957 18.8442 77.3025 19.9399 77.3025ZM17.9603 107.061V91.1967H41.5454V109.041H19.9402C18.8446 109.041 17.9603 108.157 17.9603 107.061ZM107.061 109.041H85.4559V91.1963H109.041V107.061C109.041 108.157 108.157 109.041 107.061 109.041ZM107.061 14H19.9402C16.6671 14 14.0014 16.6656 14.0014 19.9389V32.3375C14.0014 35.6153 16.6669 38.2764 19.9402 38.2764H61.5207V42.6132C61.5207 45.891 64.1862 48.5521 67.4595 48.5521H107.061C110.339 48.5521 113 45.8866 113 42.6132V19.9399C113 16.6666 110.334 14 107.061 14ZM19.9402 34.3162C18.8446 34.3162 17.9606 33.4323 17.9606 32.3365V19.938C17.9606 18.8423 18.8445 17.9583 19.9402 17.9583H61.5207V34.3157L19.9402 34.3162ZM65.4806 42.603V17.9591H85.2814V44.5829H67.4606C66.3649 44.5829 65.4806 43.6987 65.4806 42.603ZM109.041 42.603C109.041 43.6987 108.157 44.5826 107.061 44.5826H89.2406V17.9587H107.061C108.157 17.9587 109.041 18.8426 109.041 19.9383V42.603ZM25.833 82.2512C25.833 81.1555 26.7169 80.2716 27.8126 80.2716H31.689C32.7847 80.2716 33.6686 81.1555 33.6686 82.2512C33.6686 83.3469 32.7847 84.2309 31.689 84.2309H27.8126C26.7169 84.2309 25.833 83.3469 25.833 82.2512ZM33.6731 100.128C33.6731 101.223 32.7892 102.107 31.6935 102.107H27.8171C26.7214 102.107 25.8375 101.223 25.8375 100.128C25.8375 99.0321 26.7214 98.1481 27.8171 98.1481H31.6935C32.7891 98.1481 33.6731 99.0321 33.6731 100.128ZM93.3278 82.2512C93.3278 81.1555 94.2117 80.2716 95.3074 80.2716H99.1837C100.279 80.2716 101.163 81.1555 101.163 82.2512C101.163 83.3469 100.279 84.2309 99.1837 84.2309H95.3074C94.2117 84.2309 93.3278 83.3469 93.3278 82.2512ZM101.168 100.128C101.168 101.223 100.284 102.107 99.1882 102.107H95.3118C94.2162 102.107 93.3322 101.223 93.3322 100.128C93.3322 99.0321 94.2161 98.1481 95.3118 98.1481H99.1882C100.284 98.1481 101.168 99.0321 101.168 100.128ZM75.875 87.2366H51.1254C50.0297 87.2366 49.1458 88.1205 49.1458 89.2162V103.533C49.1458 104.629 50.0297 105.513 51.1254 105.513H75.875C76.9706 105.513 77.8546 104.629 77.8546 103.533V89.2162C77.8546 88.1205 76.9707 87.2366 75.875 87.2366ZM73.8954 101.554H53.1045V91.1815H73.8954V101.554ZM55.3096 82.2501C55.3096 81.1543 56.1935 80.2704 57.2892 80.2704H57.9245C59.0202 80.2704 59.9041 81.1543 59.9041 82.2501C59.9041 83.3458 59.0202 84.2297 57.9245 84.2297H57.2892C56.1935 84.2297 55.3096 83.3458 55.3096 82.2501ZM67.1045 82.2501C67.1045 81.1543 67.9885 80.2704 69.0842 80.2704H69.7195C70.8152 80.2704 71.6991 81.1543 71.6991 82.2501C71.6991 83.3458 70.8152 84.2297 69.7195 84.2297H69.0842C67.9885 84.2297 67.1045 83.3458 67.1045 82.2501ZM83.0751 29.1779V33.3627C83.0751 34.4584 82.1912 35.3424 81.0955 35.3424C79.9998 35.3424 79.1159 34.4584 79.1159 33.3627V29.1779C79.1159 28.0822 79.9998 27.1982 81.0955 27.1982C82.1912 27.1982 83.0751 28.0821 83.0751 29.1779ZM95.4039 29.1779V33.3627C95.4039 34.4584 94.52 35.3424 93.4243 35.3424C92.3286 35.3424 91.4447 34.4584 91.4447 33.3627V29.1779C91.4447 28.0822 92.3286 27.1982 93.4243 27.1982C94.52 27.1982 95.4039 28.0821 95.4039 29.1779Z" fill="white"/>
</svg>
