<svg width="127" height="127" viewBox="0 0 127 127" fill="none" xmlns="http://www.w3.org/2000/svg">
<path d="M62.461 7.85946C61.3181 9.28908 51.3271 23.0107 51.3271 29.444C51.3271 36.4469 57.0362 42.3107 64.1726 42.3107C71.164 42.3107 77.0181 36.5922 77.0181 29.444C77.0181 23.0107 67.0272 9.42919 65.8842 7.85374C65.0312 6.71449 63.314 6.71463 62.461 7.85946ZM72.7362 29.444C72.7362 34.1629 68.8837 38.0218 64.1726 38.0218C59.4615 38.0218 55.609 34.1629 55.609 29.444C55.609 26.1547 60.3201 18.2917 64.1726 12.7188C68.0251 18.1525 72.7362 26.155 72.7362 29.444Z" fill="white"/>
<path d="M113.267 54.3229C113.267 54.0381 113.267 53.8929 113.123 53.6081V53.4629C112.978 53.1781 112.838 53.0329 112.693 52.7481C112.548 52.6029 112.264 52.4632 111.98 52.3181H111.835C111.55 52.1729 111.405 52.1729 111.121 52.1729H110.976H110.831L92.2766 54.172C91.1336 54.3172 90.2807 55.3169 90.42 56.4617C90.5649 57.6066 91.5629 58.4609 92.7059 58.3214L105.267 56.8918L77.4466 85.1999L67.0264 74.7624L81.5831 60.1816L80.1559 72.7635C80.0109 73.9083 80.8695 74.908 82.0125 75.0532H82.2968C83.2948 75.0532 84.2927 74.1932 84.4377 73.1936L86.4336 54.6084V54.4632V54.318C86.4336 54.0332 86.4336 53.888 86.2887 53.6032V53.458C86.1437 53.1732 86.0043 53.028 85.8594 52.7432C85.7144 52.598 85.4301 52.4584 85.1457 52.3132C84.8614 52.168 84.7164 52.168 84.4321 52.168H84.2871H84.1422L65.5876 54.1672C64.4447 54.3124 63.5917 55.312 63.7311 56.4569C63.876 57.6017 64.874 58.4561 66.017 58.3165L78.5781 56.8869L64.0271 71.9037L45.4725 53.3185C44.6139 52.4585 43.3316 52.4585 42.473 53.3185C41.6144 54.1785 41.6144 55.463 42.473 56.323L61.0275 74.9082L50.6073 85.3457L18.6435 53.3191C17.7849 52.4591 16.5026 52.4591 15.6439 53.3191C14.7854 54.1791 14.7854 55.4636 15.6439 56.3236L49.0393 89.7741C49.4686 90.2041 50.0372 90.3437 50.4665 90.3437C50.8958 90.3437 51.6095 90.1985 51.8938 89.7741L63.7413 77.907L75.5888 89.7741C76.0181 90.2041 76.5868 90.3437 77.0161 90.3437C77.4454 90.3437 78.159 90.1985 78.4434 89.7741L108.416 60.1822L106.989 72.7641C106.844 73.9089 107.702 74.9085 108.845 75.0538H109.13C110.128 75.0538 111.126 74.1938 111.271 73.1941L113.267 54.6089V54.3241L113.267 54.3229Z" fill="white"/>
<path d="M108.847 90.917L93.7154 81.7697C92.7174 81.2001 91.4294 81.4849 90.8608 82.4845C90.2921 83.4841 90.5765 84.7742 91.5744 85.3438L103.706 92.7767L64.1722 116.796L24.6382 92.7767L36.4857 85.6286C37.4837 85.0589 37.768 83.7689 37.1994 82.7693C36.6307 81.7697 35.3428 81.4849 34.3448 82.0545L19.504 91.0623C18.7848 91.3471 18.5005 92.0619 18.5005 92.7767C18.5005 93.4915 18.9298 94.2063 19.4985 94.6364L63.1759 121.085C63.4602 121.23 63.8895 121.369 64.3188 121.369C64.7481 121.369 65.0324 121.224 65.4617 121.085L109.139 94.6364C109.563 94.2064 109.847 93.4915 109.847 92.7767C109.847 92.0619 109.563 91.3471 108.849 90.917H108.847Z" fill="white"/>
</svg>
