<svg width="284" height="107" viewBox="0 0 284 107" fill="none" xmlns="http://www.w3.org/2000/svg">
<g clip-path="url(#clip0_61_55)">
<path d="M95.2294 34.8993V51.8613H89.4434V30.1613H110.996V34.8993H95.2294Z" fill="white"/>
<path d="M126.363 43.5253H119.984V51.8613H114.197V30.1613H119.984V38.4983H126.04L131.745 30.1613H138.746L131.108 40.8083L139.383 51.8613H132.207L126.363 43.5253Z" fill="white"/>
<mask id="mask0_61_55" style="mask-type:luminance" maskUnits="userSpaceOnUse" x="0" y="0" width="284" height="107">
<path d="M0 0.000610352H283.465V106.1H0V0.000610352Z" fill="white"/>
</mask>
<g mask="url(#mask0_61_55)">
<path d="M96.8851 79.2421H110.311V67.0141H98.8511C97.7651 67.0141 96.8851 67.8931 96.8851 68.9791V79.2421ZM119.07 79.2421V86.9531H113.284V83.9721H93.8201V86.9511H88.0341L87.9541 79.2421H90.9251V70.6071C90.9251 69.5621 91.0031 67.8561 91.1691 67.0141C91.8481 63.5591 94.0051 62.2691 98.3321 62.2691H116.098V79.2421H119.07Z" fill="white"/>
<path d="M141.761 70.7147C141.761 68.4287 141.01 67.0107 138.868 67.0107H131.023C128.882 67.0107 128.13 68.4287 128.13 70.7147V75.8577C128.13 78.6637 129.028 79.2427 131.053 79.2427H138.84C140.865 79.2427 141.761 78.6637 141.761 75.8577V70.7147ZM147.722 71.0117V75.5537C147.722 81.7147 145.031 83.9727 138.983 83.9727H130.908C124.86 83.9727 122.17 81.7147 122.17 75.5537V71.0117C122.17 65.0797 124.08 62.2727 130.127 62.2727H139.766C145.813 62.2727 147.722 65.0797 147.722 71.0117Z" fill="white"/>
<path d="M171.607 76.1637L171.6 75.1977H157.986V79.2267H168.945C171.142 79.2267 171.605 77.8937 171.607 76.1637ZM177.342 70.4527L177.385 76.1467C177.385 78.6857 177.075 79.6087 176.91 80.1447C176.443 81.6717 175.477 82.8367 173.842 83.4287C173.048 83.7157 171.718 83.9717 169.978 83.9717L152.199 83.9567V62.2587L174.55 62.2437V66.9887H157.986V70.4477L177.342 70.4527Z" fill="white"/>
<path d="M200.742 68.9612C200.742 67.8752 199.862 66.9952 198.778 66.9952H187.302V74.1932H198.778C199.862 74.1932 200.742 73.3132 200.742 72.2292V68.9612ZM206.702 70.5882C206.702 71.6352 206.646 73.2422 206.504 74.1582C205.951 77.7282 204.107 79.2272 199.295 79.2272H187.302V83.9502H181.516V62.2502H199.295C203.622 62.2502 205.779 63.5432 206.459 66.9952C206.624 67.8372 206.702 69.5442 206.702 70.5882Z" fill="white"/>
<path d="M244.691 83.9551H238.904V62.2711H244.691V83.9551ZM230.144 76.1461L230.137 75.1811H216.523V79.2101H227.482C229.678 79.2101 230.142 77.8761 230.144 76.1461ZM235.922 76.1321C235.922 78.6701 235.612 79.5931 235.447 80.1291C234.98 81.6541 234.014 82.8211 232.379 83.4121C231.586 83.6991 230.256 83.9551 228.517 83.9551L210.736 83.9401V62.2411L216.523 62.2711V70.4311L235.881 70.4361L235.922 76.1321Z" fill="white"/>
<path d="M255.425 67.0107V70.7507H271.799V75.4957H255.425V79.2427H274.824V83.9727H249.639V62.2727H274.824V67.0107H255.425Z" fill="white"/>
<path d="M74.4891 71.823C74.4891 68.087 74.4741 64.35 74.5021 60.615C74.5021 59.955 74.3641 59.709 73.6481 59.713C68.2351 59.741 62.8231 59.741 57.4111 59.713C56.6811 59.713 56.4751 59.952 56.4761 60.663C56.4971 68.165 56.4971 75.665 56.4761 83.163C56.4761 83.823 56.6611 83.999 57.3131 83.988C62.7511 83.964 68.1901 83.964 73.6301 83.988C74.3271 83.988 74.5051 83.777 74.5011 83.102C74.4731 79.351 74.4871 75.586 74.4891 71.823ZM56.5081 38.922H56.4891C56.4891 44.226 56.5011 49.529 56.4761 54.835C56.4761 55.549 56.6821 55.788 57.4111 55.785C62.8001 55.76 68.1891 55.76 73.5781 55.785C74.3171 55.785 74.5121 55.536 74.5071 54.83C74.4811 50.651 74.4961 46.474 74.4921 42.292C74.4921 39.983 74.2001 37.685 73.3901 35.52C71.7411 31.111 69.0351 27.518 64.9461 25.035C62.7091 23.679 60.2891 22.856 57.7531 22.326C56.6251 22.092 56.5141 22.219 56.5141 23.334C56.5091 28.532 56.5061 33.728 56.5081 38.922ZM52.5401 53.136H52.5251V23.441C52.5251 22.185 52.4921 22.156 51.2251 22.308C51.1441 22.318 51.0631 22.332 50.9831 22.35C46.4461 23.389 42.5251 25.443 39.4451 29.017C36.4101 32.534 34.6441 36.603 34.6081 41.205C34.5031 55.17 34.5651 69.134 34.5341 83.107C34.5341 83.874 34.7951 84.003 35.4821 83.999C40.8431 83.975 46.2031 83.975 51.5641 83.999C52.3691 83.999 52.5531 83.767 52.5531 82.985C52.5311 73.036 52.5271 63.087 52.5401 53.136ZM19.0241 49.444C18.1761 49.863 17.6961 50.651 17.1381 51.351C13.1691 56.336 11.7731 61.971 13.0671 68.209C14.0831 73.118 16.7141 77.049 20.7081 80.055C23.4171 82.094 26.4921 83.29 29.8361 83.801C30.2171 83.859 30.6181 83.95 30.6131 83.306C30.5851 79.677 30.5751 76.048 30.5581 72.419C30.5731 72.089 30.6031 71.759 30.6041 71.429V51.902C30.6041 49.592 30.5911 47.282 30.6141 44.973C30.6141 44.336 30.5521 44.046 29.7551 44.173C27.2521 44.55 24.8411 45.389 22.6451 46.648C21.3271 47.426 20.0171 48.239 19.0241 49.444ZM78.4381 63.276C78.4381 70.726 78.4091 78.176 78.4631 85.624C78.4751 87.109 77.4111 87.983 76.1291 87.982C61.6111 87.964 47.1031 88.023 32.5891 87.953C20.5581 87.891 10.5581 79.268 8.89008 67.435C7.01608 54.13 15.9691 42.802 28.0971 40.471C28.7161 40.335 29.3441 40.246 29.9761 40.205C30.5451 40.186 30.7031 39.941 30.7631 39.417C31.5271 32.653 34.6441 27.166 40.0011 23.031C44.8231 19.312 50.3491 17.63 56.4301 18.229C66.1631 19.185 72.9121 24.311 76.7691 33.25C77.9241 35.946 78.4351 38.812 78.4371 41.754C78.4411 48.93 78.4421 56.103 78.4381 63.276Z" fill="white"/>
<path d="M46.59 57.3804C46.59 55.7584 46.653 54.1334 46.57 52.5154C46.525 51.3904 47.394 50.4394 48.518 50.3824C49.644 50.3444 50.529 51.3144 50.539 52.5564C50.561 54.9484 50.548 57.3404 50.548 59.7314C50.548 60.6124 50.566 61.4914 50.538 62.3704C50.51 63.2504 49.858 64.0884 49.112 64.3004C48.33 64.5464 47.477 64.2844 46.968 63.6404C46.693 63.2944 46.558 62.8564 46.588 62.4154C46.595 60.7344 46.59 59.0584 46.59 57.3804Z" fill="white"/>
</g>
</g>
<defs>
<clipPath id="clip0_61_55">
<rect width="283.465" height="106.099" fill="white"/>
</clipPath>
</defs>
</svg>
